<svg width="20" height="20" viewBox="0 0 20 20" fill="none" xmlns="http://www.w3.org/2000/svg">
<circle cx="10" cy="10" r="10" fill="white"/>
<path d="M7.30735 8.49959C7.30735 8.367 7.35247 8.23983 7.43277 8.14607C7.51308 8.05231 7.62199 7.99964 7.73556 7.99964H10.4761C10.5897 7.99964 10.6986 8.05231 10.7789 8.14607C10.8592 8.23983 10.9043 8.367 10.9043 8.49959V11.4993C10.9043 11.6319 10.8592 11.7591 10.7789 11.8528C10.6986 11.9466 10.5897 11.9993 10.4761 11.9993H7.73556C7.62199 11.9993 7.51308 11.9466 7.43277 11.8528C7.35247 11.7591 7.30735 11.6319 7.30735 11.4993V8.49959ZM8.16377 10.9994H10.0479V8.99955H8.16377V10.9994ZM4.23966 6.00982C4.65931 4.90192 5.60908 4 6.75068 4H13.4307C14.6614 4 16 5.18589 16 6.99973C16 8.05563 15.4947 8.95055 15.1402 9.40651C15.1342 9.95446 15.153 10.6804 15.1761 11.4573L15.183 11.6923C15.2061 12.4842 15.2301 13.3072 15.2301 13.9991C15.2301 14.639 15.1736 15.238 14.807 15.6139C14.6254 15.8009 14.4045 15.8919 14.1818 15.9399C13.9334 15.9853 13.6821 16.005 13.4307 15.9989H6.5794C5.7718 15.9989 5.24938 15.7159 4.98132 15.194C4.76893 14.781 4.77664 14.2991 4.78006 14.0671L4.78092 13.9991V9.41951C3.90052 8.4196 3.83286 7.08472 4.23966 6.00982ZM6.75068 4.99991C6.00817 4.99991 5.3316 5.59886 5.02329 6.41378C4.72354 7.20671 4.79633 8.13363 5.48661 8.81856C5.53388 8.86552 5.57184 8.92391 5.59787 8.98969C5.62389 9.05547 5.63736 9.12707 5.63734 9.19953V14.0661C5.63734 14.3371 5.63734 14.526 5.71527 14.679C5.76837 14.782 5.93195 14.999 6.58025 14.999H11.7188C11.986 14.999 12.1675 14.986 12.2968 14.957C12.421 14.929 12.4579 14.894 12.4681 14.881C12.4793 14.869 12.5101 14.828 12.5358 14.683C12.5615 14.533 12.5743 14.3181 12.5743 13.9991C12.5743 13.5121 12.5709 12.9732 12.5683 12.4292C12.5569 11.4147 12.5589 10.4 12.5743 9.38551C12.5775 9.25755 12.6225 9.13587 12.7002 9.04554C12.7687 8.96555 12.8338 8.89356 12.8972 8.82356C13.0633 8.63958 13.2089 8.47859 13.3417 8.25162C13.5044 7.97164 13.638 7.59468 13.638 6.99973C13.638 6.34379 13.3828 5.85783 13.0145 5.52186C12.6415 5.18982 12.1869 5.00681 11.7179 4.99991H6.75068Z" fill="#8A6942"/>
</svg>
