<svg xmlns="http://www.w3.org/2000/svg" width="24" height="24" viewBox="0 0 24 24" fill="none">
<path d="M20 8.47059C20 13.1488 16 19.7647 12 24C8 19.7647 4 13.1488 4 8.47059C4 3.79241 7.58172 0 12 0C16.4183 0 20 3.79241 20 8.47059Z" fill="#8A6942"/>
<circle cx="12" cy="8" r="6" fill="white"/>
<path d="M10.2049 6.99973C10.2049 6.91133 10.235 6.82655 10.2885 6.76405C10.3421 6.70154 10.4147 6.66643 10.4904 6.66643H12.3174C12.3931 6.66643 12.4657 6.70154 12.5193 6.76405C12.5728 6.82655 12.6029 6.91133 12.6029 6.99973V8.99955C12.6029 9.08795 12.5728 9.17272 12.5193 9.23523C12.4657 9.29774 12.3931 9.33285 12.3174 9.33285H10.4904C10.4147 9.33285 10.3421 9.29774 10.2885 9.23523C10.235 9.17272 10.2049 9.08795 10.2049 8.99955V6.99973ZM10.7758 8.66624H12.0319V7.33303H10.7758V8.66624ZM8.15978 5.33988C8.43954 4.60128 9.07272 4 9.83379 4H14.2872C15.1076 4 16 4.7906 16 5.99982C16 6.70376 15.6631 7.30037 15.4268 7.60434C15.4228 7.96964 15.4353 8.4536 15.4508 8.97155L15.4553 9.1282C15.4707 9.65616 15.4867 10.2048 15.4867 10.6661C15.4867 11.0927 15.449 11.492 15.2047 11.7426C15.0836 11.8673 14.9363 11.9279 14.7879 11.9599C14.6223 11.9902 14.4547 12.0034 14.2872 11.9993H9.7196C9.1812 11.9993 8.83292 11.8106 8.65421 11.4627C8.51262 11.1873 8.51776 10.866 8.52004 10.7114L8.52061 10.6661V7.61301C7.93368 6.9464 7.88858 6.05648 8.15978 5.33988ZM9.83379 4.66661C9.33878 4.66661 8.88773 5.0659 8.68219 5.60919C8.48236 6.13781 8.53089 6.75575 8.99107 7.21238C9.02258 7.24368 9.04789 7.28261 9.06524 7.32646C9.08259 7.37031 9.09157 7.41805 9.09156 7.46635V10.7107C9.09156 10.8914 9.09156 11.0174 9.14351 11.1194C9.17891 11.188 9.28796 11.3327 9.72017 11.3327H13.1458C13.324 11.3327 13.445 11.324 13.5312 11.3047C13.614 11.286 13.6386 11.2627 13.6454 11.254C13.6528 11.246 13.6734 11.2187 13.6905 11.122C13.7077 11.022 13.7162 10.8787 13.7162 10.6661C13.7162 10.3414 13.7139 9.98213 13.7122 9.61949C13.7046 8.94313 13.7059 8.26666 13.7162 7.59034C13.7183 7.50503 13.7483 7.42391 13.8001 7.3637C13.8458 7.31037 13.8892 7.26237 13.9315 7.21571C14.0422 7.09305 14.1393 6.98573 14.2278 6.83441C14.3363 6.64776 14.4253 6.39645 14.4253 5.99982C14.4253 5.56253 14.2552 5.23855 14.0097 5.01457C13.761 4.79322 13.4579 4.67121 13.1453 4.66661H9.83379Z" fill="#8A6942"/>
</svg>