<svg width="24" height="24" viewBox="0 0 24 24" fill="none" xmlns="http://www.w3.org/2000/svg">
<path d="M18 9C18 12.3137 15 17 12 20C9 17 6 12.3137 6 9C6 5.68629 8.68629 3 12 3C15.3137 3 18 5.68629 18 9Z" fill="#8A6942"/>
<circle cx="12" cy="9" r="5" fill="white"/>
<path d="M10.6537 8.2498C10.6537 8.1835 10.6762 8.11992 10.7164 8.07304C10.7565 8.02616 10.811 7.99982 10.8678 7.99982H12.2381C12.2948 7.99982 12.3493 8.02616 12.3894 8.07304C12.4296 8.11992 12.4522 8.1835 12.4522 8.2498V9.74966C12.4522 9.81596 12.4296 9.87954 12.3894 9.92642C12.3493 9.9733 12.2948 9.99964 12.2381 9.99964H10.8678C10.811 9.99964 10.7565 9.9733 10.7164 9.92642C10.6762 9.87954 10.6537 9.81596 10.6537 9.74966V8.2498ZM11.0819 9.49968H12.0239V8.49977H11.0819V9.49968ZM9.11983 7.00491C9.32965 6.45096 9.80454 6 10.3753 6H13.7154C14.3307 6 15 6.59295 15 7.49986C15 8.02782 14.7474 8.47528 14.5701 8.70326C14.5671 8.97723 14.5765 9.3402 14.5881 9.72866L14.5915 9.84615C14.6031 10.2421 14.615 10.6536 14.615 10.9995C14.615 11.3195 14.5868 11.619 14.4035 11.807C14.3127 11.9005 14.2022 11.946 14.0909 11.97C13.9667 11.9926 13.8411 12.0025 13.7154 11.9995H10.2897C9.8859 11.9995 9.62469 11.858 9.49066 11.597C9.38446 11.3905 9.38832 11.1495 9.39003 11.0335L9.39046 10.9995V8.70975C8.95026 8.2098 8.91643 7.54236 9.11983 7.00491ZM10.3753 6.49995C10.0041 6.49995 9.6658 6.79943 9.51164 7.20689C9.36177 7.60336 9.39817 8.06681 9.7433 8.40928C9.76694 8.43276 9.78592 8.46195 9.79893 8.49484C9.81195 8.52773 9.81868 8.56353 9.81867 8.59976V11.033C9.81867 11.1685 9.81867 11.263 9.85764 11.3395C9.88418 11.391 9.96597 11.4995 10.2901 11.4995H12.8594C12.993 11.4995 13.0838 11.493 13.1484 11.4785C13.2105 11.4645 13.2289 11.447 13.2341 11.4405C13.2396 11.4345 13.255 11.414 13.2679 11.3415C13.2807 11.2665 13.2872 11.159 13.2872 10.9995C13.2872 10.7561 13.2855 10.4866 13.2842 10.2146C13.2784 9.70734 13.2794 9.2 13.2872 8.69276C13.2887 8.62878 13.3113 8.56793 13.3501 8.52277C13.3844 8.48278 13.4169 8.44678 13.4486 8.41178C13.5317 8.31979 13.6045 8.2393 13.6708 8.12581C13.7522 7.98582 13.819 7.79734 13.819 7.49986C13.819 7.17189 13.6914 6.92892 13.5073 6.76093C13.3208 6.59491 13.0935 6.50341 12.859 6.49995H10.3753Z" fill="#8A6942"/>
</svg>
