<svg xmlns="http://www.w3.org/2000/svg" width="60" height="60" viewBox="0 0 60 60" fill="none">
  <g clip-path="url(#clip0_660_2204)">
    <path fill-rule="evenodd" clip-rule="evenodd" d="M39.2302 0C35.4558 0 32.1047 1.81229 29.9995 4.61417C27.8944 1.81229 24.5433 0 20.7688 0C15.1184 0 10.4166 4.06152 9.42362 9.42439C4.06113 10.4177 0 15.1193 0 20.7695C0 24.5437 1.81211 27.8947 4.61375 29.9999C1.81211 32.105 0 35.456 0 39.2302C0 44.8807 4.06158 49.5825 9.42451 50.5755C10.4175 55.9384 15.1193 60 20.7698 60C24.5442 60 27.8953 58.1877 30.0005 55.3858C32.1056 58.1877 35.4567 60 39.2312 60C44.8817 60 49.5835 55.9383 50.5764 50.5753C55.9389 49.582 60 44.8804 60 39.2302C60 35.456 58.1879 32.105 55.3863 29.9999C58.1879 27.8947 60 24.5437 60 20.7695C60 15.119 55.9384 10.4171 50.5754 9.42421C49.5823 4.06142 44.8806 0 39.2302 0Z" fill="#FFE070"/>
    <path fill-rule="evenodd" clip-rule="evenodd" d="M23.4265 29.8846C24.7689 29.8846 25.8571 27.6719 25.8571 24.9423C25.8571 22.2128 24.7689 20 23.4265 20C22.3452 20 21.4289 21.4355 21.1133 23.4203L23.451 24.3252L21 25.2346C21.0744 27.8281 22.1323 29.8846 23.4265 29.8846Z" fill="black"/>
    <path fill-rule="evenodd" clip-rule="evenodd" d="M35.4265 29.8846C36.7689 29.8846 37.8571 27.6719 37.8571 24.9423C37.8571 22.2128 36.7689 20 35.4265 20C34.3452 20 33.4289 21.4355 33.1133 23.4203L35.451 24.3252L33 25.2346C33.0744 27.8281 34.1323 29.8846 35.4265 29.8846Z" fill="black"/>
    <ellipse cx="46" cy="33" rx="6" ry="3" fill="#FF6A6A"/>
    <ellipse cx="14" cy="33" rx="6" ry="3" fill="#FF6A6A"/>
    <path fill-rule="evenodd" clip-rule="evenodd" d="M38 39H22C22 35.134 25.5817 32 30 32C34.4183 32 38 35.134 38 39Z" fill="#E75A5A"/>
    <path fill-rule="evenodd" clip-rule="evenodd" d="M26.4673 32.7178C27.4923 32.2756 28.6412 32.0199 29.8561 32.0011C29.861 32.1144 29.8636 32.2291 29.8636 32.3451C29.8636 34.3636 29.1013 35.9999 28.1611 35.9999C27.2794 35.9999 26.5542 34.5612 26.4673 32.7178ZM33.2646 32.6074C33.2019 34.5035 32.4656 35.9999 31.5664 35.9999C30.6261 35.9999 29.8639 34.3636 29.8639 32.3451C29.8639 32.229 29.8664 32.1142 29.8713 32.0009C29.9142 32.0003 29.9571 32 30 32C31.1628 32 32.2677 32.2171 33.2646 32.6074Z" fill="white"/>
  </g>
  <defs>
    <clipPath id="clip0_660_2204">
      <rect width="60" height="60" fill="white"/>
    </clipPath>
  </defs>
</svg>