<svg width="24" height="24" viewBox="0 0 24 24" fill="none" xmlns="http://www.w3.org/2000/svg">
<path d="M6.69916 1.46076L7.93 1.09955C9.08199 0.761447 10.314 1.3085 10.8077 2.37742L11.7905 4.50684C12.2191 5.434 11.9814 6.52497 11.2031 7.20327L9.0397 9.0912C9.17342 10.221 9.58599 11.333 10.2785 12.4271C10.9366 13.4857 11.8192 14.4122 12.874 15.1519L15.4751 14.3539C16.4602 14.0525 17.5333 14.4001 18.1379 15.2159L19.5459 17.1164C20.2499 18.0657 20.123 19.374 19.251 20.1783L18.3162 21.0403C17.3859 21.8982 16.0579 22.21 14.8282 21.8572C11.9265 21.0256 9.25913 18.5571 6.82487 14.4515C4.38718 10.3397 3.52776 6.84942 4.24433 3.98499C4.54604 2.77957 5.48089 1.81881 6.70144 1.46076H6.69916Z" fill="#636363"/>
</svg>
