<svg width="24" height="24" viewBox="0 0 24 24" fill="none" xmlns="http://www.w3.org/2000/svg">
<g clip-path="url(#clip0_428_1373)">
<circle cx="12" cy="12" r="12" fill="#636363"/>
<path d="M8.76887 10.1993C8.76887 10.0402 8.82301 9.8876 8.91938 9.77509C9.01574 9.66258 9.14644 9.59937 9.28272 9.59937H12.5714C12.7077 9.59937 12.8384 9.66258 12.9347 9.77509C13.0311 9.8876 13.0852 10.0402 13.0852 10.1993V13.799C13.0852 13.9581 13.0311 14.1107 12.9347 14.2232C12.8384 14.3357 12.7077 14.3989 12.5714 14.3989H9.28272C9.14644 14.3989 9.01574 14.3357 8.91938 14.2232C8.82301 14.1107 8.76887 13.9581 8.76887 13.799V10.1993ZM9.79657 13.199H12.0575V10.7993H9.79657V13.199ZM5.08764 7.21159C5.59122 5.88211 6.73094 4.7998 8.10087 4.7998H16.1169C17.5938 4.7998 19.2 6.22288 19.2 8.39948C19.2 9.66656 18.5937 10.7405 18.1682 11.2876C18.161 11.9452 18.1837 12.8163 18.2114 13.7486L18.2196 14.0306C18.2474 14.9809 18.2761 15.9684 18.2761 16.7987C18.2761 17.5666 18.2083 18.2854 17.7685 18.7365C17.5506 18.9609 17.2854 19.0701 17.0182 19.1277C16.7202 19.1822 16.4186 19.2058 16.1169 19.1985H7.89533C6.9262 19.1985 6.2993 18.8589 5.97763 18.2326C5.72276 17.737 5.73201 17.1587 5.73612 16.8803L5.73715 16.7987V11.3032C4.68067 10.1033 4.59949 8.50147 5.08764 7.21159ZM8.10087 5.9997C7.20985 5.9997 6.39796 6.71843 6.02799 7.69634C5.6683 8.64786 5.75565 9.76016 6.58398 10.5821C6.6407 10.6384 6.68626 10.7085 6.71749 10.7874C6.74872 10.8664 6.76488 10.9523 6.76485 11.0392V16.8791C6.76485 17.2043 6.76485 17.4311 6.85837 17.6146C6.92209 17.7382 7.11838 17.9986 7.89635 17.9986H14.0626C14.3832 17.9986 14.6011 17.983 14.7563 17.9482C14.9053 17.9146 14.9495 17.8726 14.9618 17.857C14.9752 17.8426 15.0122 17.7934 15.043 17.6194C15.0738 17.4395 15.0892 17.1815 15.0892 16.7987C15.0892 16.2144 15.0851 15.5676 15.082 14.9149C15.0683 13.6974 15.0707 12.4798 15.0892 11.2624C15.093 11.1089 15.1471 10.9628 15.2403 10.8545C15.3225 10.7585 15.4006 10.6721 15.4767 10.5881C15.6761 10.3673 15.8508 10.1741 16.0101 9.90174C16.2053 9.56577 16.3656 9.11341 16.3656 8.39948C16.3656 7.61235 16.0594 7.0292 15.6175 6.62604C15.1699 6.22759 14.6243 6.00798 14.0615 5.9997H8.10087Z" fill="white"/>
</g>
<defs>
<clipPath id="clip0_428_1373">
<rect width="24" height="24" fill="white"/>
</clipPath>
</defs>
</svg>
