<svg width="24" height="24" viewBox="0 0 24 24" fill="none" xmlns="http://www.w3.org/2000/svg">
<g clip-path="url(#clip0_428_1374)">
<circle cx="12" cy="12" r="12" fill="#636363"/>
<path d="M19.5601 9.80285C19.5447 9.26215 19.3976 8.73465 19.1329 8.2708C18.8682 7.80694 18.4947 7.42226 18.0481 7.15354C17.941 6.38431 17.5738 5.68142 17.0138 5.17374C16.4537 4.66606 15.7384 4.38761 14.9989 4.38943C14.7153 4.38891 14.4329 4.42751 14.1589 4.50423C13.5807 3.9239 12.8121 3.6001 12.0127 3.6001C11.2133 3.6001 10.4447 3.9239 9.8665 4.50423C9.59248 4.42751 9.31007 4.38891 9.0265 4.38943C8.28413 4.38334 7.56474 4.65986 7.00119 5.16792C6.43763 5.67599 6.06798 6.38128 5.9605 7.15354C5.51237 7.42116 5.13719 7.80536 4.87094 8.26929C4.6047 8.73322 4.45634 9.2613 4.4401 9.80285C4.21732 9.80285 4.00366 9.89589 3.84613 10.0615C3.6886 10.2271 3.6001 10.4517 3.6001 10.686C3.60014 12.2361 3.98829 13.7589 4.72554 15.1013C5.46279 16.4438 6.52317 17.5586 7.8001 18.3336V19.517C7.8001 19.7512 7.8886 19.9758 8.04613 20.1414C8.20366 20.3071 8.41732 20.4001 8.6401 20.4001H15.3601C15.5829 20.4001 15.7965 20.3071 15.9541 20.1414C16.1116 19.9758 16.2001 19.7512 16.2001 19.517V18.3336C17.477 17.5586 18.5374 16.4438 19.2747 15.1013C20.0119 13.7589 20.4001 12.2361 20.4001 10.686C20.4001 10.4517 20.3116 10.2271 20.1541 10.0615C19.9965 9.89589 19.7829 9.80285 19.5601 9.80285ZM6.1201 9.80285C6.14144 9.52385 6.2416 9.25791 6.40774 9.03919C6.57388 8.82047 6.79841 8.65894 7.0525 8.57534L7.7497 8.34573L7.6153 7.59509C7.61749 7.4049 7.6553 7.21702 7.72656 7.04218C7.79783 6.86735 7.90115 6.70899 8.03064 6.57614C8.16012 6.44329 8.31323 6.33856 8.48122 6.26792C8.64921 6.19729 8.82878 6.16213 9.0097 6.16447C9.25228 6.16301 9.49157 6.22362 9.7069 6.34109L10.3873 6.73848L10.8073 6.05849C10.9386 5.85268 11.1162 5.68401 11.3242 5.56738C11.5322 5.45075 11.7643 5.38975 12.0001 5.38975C12.2359 5.38975 12.468 5.45075 12.676 5.56738C12.884 5.68401 13.0615 5.85268 13.1929 6.05849L13.6129 6.73848L14.2933 6.34109C14.5086 6.22362 14.7479 6.16301 14.9905 6.16447C15.3538 6.15966 15.7044 6.30505 15.9668 6.56932C16.2292 6.83359 16.3823 7.19561 16.3933 7.57743L16.2589 8.32807L16.9477 8.57534C17.2018 8.65894 17.4263 8.82047 17.5925 9.03919C17.7586 9.25791 17.8588 9.52385 17.8801 9.80285H6.1201Z" fill="white"/>
</g>
<defs>
<clipPath id="clip0_428_1374">
<rect width="24" height="24" fill="white"/>
</clipPath>
</defs>
</svg>
