<svg width="24" height="24" viewBox="0 0 24 24" fill="none" xmlns="http://www.w3.org/2000/svg">
<path d="M18 9C18 12.3137 15 17 12 20C9 17 6 12.3137 6 9C6 5.68629 8.68629 3 12 3C15.3137 3 18 5.68629 18 9Z" fill="#EA5858"/>
<circle cx="12" cy="9" r="5" fill="white"/>
<path d="M14.5 6.75L11.5 7.1025V7.5H14.5V7.75H11.5V9H14.5C14.5 9.4525 14.3575 9.865 14.08 10.2375C13.8025 10.61 13.4425 10.8825 13 11.0625V11.5H11V11.0625C10.56 10.8825 10.1975 10.6075 9.92 10.2375C9.6425 9.8675 9.5 9.4525 9.5 9H10.25V7L14.5 6.5V6.75ZM10.5 7.22V7.5H10.75V7.195L10.5 7.22ZM10.5 7.75V9H10.75V7.75H10.5ZM11.25 9V7.75H11V9H11.25ZM11.25 7.5V7.1375L11 7.16V7.5H11.25Z" fill="#EA5858"/>
</svg>
