<svg width="20" height="20" viewBox="0 0 20 20" fill="none" xmlns="http://www.w3.org/2000/svg">
<circle cx="10" cy="10" r="10" fill="#EA5858"/>
<path d="M15.75 4.875L8.25 5.75625V6.75H15.75V7.375H8.25V10.5H15.75C15.75 11.6312 15.3938 12.6625 14.7 13.5938C14.0062 14.525 13.1062 15.2063 12 15.6562V16.75H7V15.6562C5.9 15.2063 4.99375 14.5188 4.3 13.5938C3.60625 12.6688 3.25 11.6312 3.25 10.5H5.125V5.5L15.75 4.25V4.875ZM5.75 6.05V6.75H6.375V5.9875L5.75 6.05ZM5.75 7.375V10.5H6.375V7.375H5.75ZM7.625 10.5V7.375H7V10.5H7.625ZM7.625 6.75V5.84375L7 5.9V6.75H7.625Z" fill="white"/>
</svg>
