<svg xmlns="http://www.w3.org/2000/svg" width="24" height="24" viewBox="0 0 24 24" fill="none">
<path d="M20 8.47059C20 13.1488 16 19.7647 12 24C8 19.7647 4 13.1488 4 8.47059C4 3.79241 7.58172 0 12 0C16.4183 0 20 3.79241 20 8.47059Z" fill="#EA5858"/>
<circle cx="12" cy="8" r="6" fill="white"/>
<path d="M16 4.4L11.2 4.964V5.6H16V6H11.2V8H16C16 8.724 15.772 9.384 15.328 9.98C14.884 10.576 14.308 11.012 13.6 11.3V12H10.4V11.3C9.696 11.012 9.116 10.572 8.672 9.98C8.228 9.388 8 8.724 8 8H9.2V4.8L16 4V4.4ZM9.6 5.152V5.6H10V5.112L9.6 5.152ZM9.6 6V8H10V6H9.6ZM10.8 8V6H10.4V8H10.8ZM10.8 5.6V5.02L10.4 5.056V5.6H10.8Z" fill="#EA5858"/>
</svg>