<svg xmlns="http://www.w3.org/2000/svg" width="24" height="24" viewBox="0 0 24 24" fill="none">
<path d="M20 8.47059C20 13.1488 16 19.7647 12 24C8 19.7647 4 13.1488 4 8.47059C4 3.79241 7.58172 0 12 0C16.4183 0 20 3.79241 20 8.47059Z" fill="#FFB763"/>
<circle cx="12" cy="8" r="6" fill="white"/>
<path d="M10.3438 10.5H11.5938V10.0833H10.7605V9.66667H11.5938V8.41667H10.3438V8.83333H11.1772V9.25H10.3438V10.5ZM13.2605 10.5H13.6772V8.41667H13.2605V9.25H12.8438V8.41667H12.4272V9.66667H13.2605V10.5ZM15.7605 7.60417V10.9167C15.7605 11.1458 15.6788 11.3421 15.5155 11.5054C15.3522 11.6687 15.1562 11.7503 14.9276 11.75H9.09425C8.86508 11.75 8.66883 11.6683 8.5055 11.505C8.34217 11.3417 8.26064 11.1456 8.26092 10.9167V7.60417C8.1012 7.45833 7.978 7.27083 7.89133 7.04167C7.80467 6.8125 7.80286 6.5625 7.88592 6.29167L8.32342 4.875C8.37897 4.69444 8.478 4.54514 8.6205 4.42708C8.763 4.30903 8.92758 4.25 9.11425 4.25H14.9059C15.0934 4.25 15.2566 4.30736 15.3955 4.42208C15.5344 4.53681 15.6351 4.68778 15.6976 4.875L16.1351 6.29167C16.2184 6.5625 16.2168 6.80903 16.1301 7.03125C16.0434 7.25347 15.9205 7.44444 15.7605 7.60417ZM12.9272 7.16667C13.1147 7.16667 13.257 7.10236 13.3543 6.97375C13.4515 6.84514 13.4897 6.70111 13.4688 6.54167L13.2397 5.08333H12.4272V6.625C12.4272 6.77083 12.4758 6.89764 12.573 7.00542C12.6702 7.11319 12.7883 7.16694 12.9272 7.16667ZM11.0522 7.16667C11.2119 7.16667 11.342 7.11278 11.4426 7.005C11.5431 6.89722 11.5936 6.77056 11.5938 6.625V5.08333H10.7813L10.5522 6.54167C10.5244 6.70833 10.5608 6.85417 10.6613 6.97917C10.7619 7.10417 10.8922 7.16667 11.0522 7.16667ZM9.198 7.16667C9.323 7.16667 9.43231 7.12153 9.52592 7.03125C9.61953 6.94097 9.67689 6.82639 9.698 6.6875L9.92717 5.08333H9.11467L8.698 6.47917C8.65633 6.61806 8.67883 6.76736 8.7655 6.92708C8.85217 7.08681 8.99633 7.16667 9.198 7.16667ZM14.823 7.16667C15.0244 7.16667 15.1702 7.08681 15.2605 6.92708C15.3508 6.76736 15.3716 6.61806 15.323 6.47917L14.8855 5.08333H14.0938L14.323 6.6875C14.3438 6.82639 14.4012 6.94097 14.4951 7.03125C14.589 7.12153 14.6983 7.16667 14.823 7.16667Z" fill="#FFB763"/>
</svg>