<svg width="24" height="24" viewBox="0 0 24 24" fill="none" xmlns="http://www.w3.org/2000/svg">
<path d="M18 9C18 12.3137 15 17 12 20C9 17 6 12.3137 6 9C6 5.68629 8.68629 3 12 3C15.3137 3 18 5.68629 18 9Z" fill="#FFB763"/>
<circle cx="12" cy="9" r="5" fill="white"/>
<g clip-path="url(#clip0_379_250)">
<path d="M11.0062 10.5H11.7562V10.25H11.2562V10H11.7562V9.25H11.0062V9.5H11.5062V9.75H11.0062V10.5ZM12.7562 10.5H13.0062V9.25H12.7562V9.75H12.5062V9.25H12.2562V10H12.7562V10.5ZM14.2562 8.7625V10.75C14.2562 10.8875 14.2072 11.0052 14.1092 11.1033C14.0112 11.2013 13.8936 11.2502 13.7565 11.25H10.2565C10.119 11.25 10.0012 11.201 9.9032 11.103C9.8052 11.005 9.75629 10.8873 9.75645 10.75V8.7625C9.66062 8.675 9.5867 8.5625 9.5347 8.425C9.4827 8.2875 9.48162 8.1375 9.53145 7.975L9.79395 7.125C9.82729 7.01667 9.8867 6.92708 9.9722 6.85625C10.0577 6.78542 10.1565 6.75 10.2685 6.75H13.7435C13.856 6.75 13.9539 6.78442 14.0372 6.85325C14.1205 6.92208 14.181 7.01267 14.2185 7.125L14.481 7.975C14.531 8.1375 14.53 8.28542 14.478 8.41875C14.426 8.55208 14.3522 8.66667 14.2562 8.7625ZM12.5562 8.5C12.6687 8.5 12.7541 8.46142 12.8125 8.38425C12.8708 8.30708 12.8937 8.22067 12.8812 8.125L12.7437 7.25H12.2562V8.175C12.2562 8.2625 12.2854 8.33858 12.3437 8.40325C12.402 8.46792 12.4729 8.50017 12.5562 8.5ZM11.4312 8.5C11.527 8.5 11.6051 8.46767 11.6655 8.403C11.7258 8.33833 11.756 8.26233 11.7562 8.175V7.25H11.2687L11.1312 8.125C11.1145 8.225 11.1364 8.3125 11.1967 8.3875C11.257 8.4625 11.3352 8.5 11.4312 8.5ZM10.3187 8.5C10.3937 8.5 10.4593 8.47292 10.5155 8.41875C10.5716 8.36458 10.606 8.29583 10.6187 8.2125L10.7562 7.25H10.2687L10.0187 8.0875C9.9937 8.17083 10.0072 8.26042 10.0592 8.35625C10.1112 8.45208 10.1977 8.5 10.3187 8.5ZM13.6937 8.5C13.8145 8.5 13.902 8.45208 13.9562 8.35625C14.0104 8.26042 14.0229 8.17083 13.9937 8.0875L13.7312 7.25H13.2562L13.3937 8.2125C13.4062 8.29583 13.4406 8.36458 13.497 8.41875C13.5533 8.47292 13.6189 8.5 13.6937 8.5Z" fill="#FFB763"/>
</g>
<defs>
<clipPath id="clip0_379_250">
<rect width="6" height="6" fill="white" transform="translate(9 6)"/>
</clipPath>
</defs>
</svg>
