<svg width="20" height="20" viewBox="0 0 20 20" fill="none" xmlns="http://www.w3.org/2000/svg">
<circle cx="10" cy="10" r="10" fill="#FFB763"/>
<path d="M7.35004 14H9.35004V13.3333H8.0167V12.6667H9.35004V10.6667H7.35004V11.3333H8.68337V12H7.35004V14ZM12.0167 14H12.6834V10.6667H12.0167V12H11.35V10.6667H10.6834V12.6667H12.0167V14ZM16.0167 9.36667V14.6667C16.0167 15.0333 15.886 15.3473 15.6247 15.6087C15.3634 15.87 15.0498 16.0004 14.684 16H5.3507C4.98404 16 4.67004 15.8693 4.4087 15.608C4.14737 15.3467 4.01693 15.0329 4.01737 14.6667V9.36667C3.76181 9.13333 3.5647 8.83333 3.42604 8.46667C3.28737 8.1 3.28448 7.7 3.41737 7.26667L4.11737 5C4.20626 4.71111 4.3647 4.47222 4.5927 4.28333C4.8207 4.09444 5.08404 4 5.3827 4H14.6494C14.9494 4 15.2105 4.09178 15.4327 4.27533C15.6549 4.45889 15.816 4.70044 15.916 5L16.616 7.26667C16.7494 7.7 16.7467 8.09444 16.608 8.45C16.4694 8.80556 16.2727 9.11111 16.0167 9.36667ZM11.4834 8.66667C11.7834 8.66667 12.0111 8.56378 12.1667 8.358C12.3223 8.15222 12.3834 7.92178 12.35 7.66667L11.9834 5.33333H10.6834V7.8C10.6834 8.03333 10.7611 8.23622 10.9167 8.40867C11.0723 8.58111 11.2611 8.66711 11.4834 8.66667ZM8.48337 8.66667C8.73893 8.66667 8.94715 8.58044 9.10804 8.408C9.26893 8.23556 9.34959 8.03289 9.35004 7.8V5.33333H8.05004L7.68337 7.66667C7.63893 7.93333 7.69715 8.16667 7.85804 8.36667C8.01893 8.56667 8.22737 8.66667 8.48337 8.66667ZM5.5167 8.66667C5.7167 8.66667 5.89159 8.59444 6.04137 8.45C6.19115 8.30556 6.28293 8.12222 6.3167 7.9L6.68337 5.33333H5.38337L4.7167 7.56667C4.65004 7.78889 4.68604 8.02778 4.8247 8.28333C4.96337 8.53889 5.19404 8.66667 5.5167 8.66667ZM14.5167 8.66667C14.8389 8.66667 15.0723 8.53889 15.2167 8.28333C15.3611 8.02778 15.3945 7.78889 15.3167 7.56667L14.6167 5.33333H13.35L13.7167 7.9C13.75 8.12222 13.8418 8.30556 13.992 8.45C14.1423 8.59444 14.3171 8.66667 14.5167 8.66667Z" fill="white"/>
</svg>
