<svg width="24" height="24" viewBox="0 0 24 24" fill="none" xmlns="http://www.w3.org/2000/svg">
<g clip-path="url(#clip0_246_422)">
<mask id="path-1-inside-1_246_422" fill="white">
<path fill-rule="evenodd" clip-rule="evenodd" d="M3.76957 3.76957C4.16685 1.62451 6.04753 0 8.30763 0C9.81737 0 11.1578 0.724897 11.9999 1.84562C12.8419 0.724898 14.1824 0 15.6921 0C17.9522 0 19.8329 1.62448 20.2302 3.76951C22.3754 4.16666 24.0001 6.04741 24.0001 8.30763C24.0001 9.81738 23.2752 11.1578 22.1544 11.9999C23.2752 12.8419 24.0001 14.1824 24.0001 15.6921C24.0001 17.9522 22.3756 19.8328 20.2306 20.2302C19.8334 22.3753 17.9527 24 15.6925 24C14.1827 24 12.8423 23.2751 12.0002 22.1544C11.1582 23.2751 9.81771 24 8.30795 24C6.04778 24 4.16706 22.3754 3.76986 20.2302C1.62466 19.8331 0 17.9523 0 15.6921C0 14.1824 0.724898 12.8419 1.84562 11.9999C0.724897 11.1578 0 9.81737 0 8.30763C0 6.04753 1.62451 4.16685 3.76957 3.76957Z"/>
</mask>
<path d="M3.76957 3.76957L3.86063 4.26121L4.19861 4.19861L4.26121 3.86063L3.76957 3.76957ZM11.9999 1.84562L11.6001 2.14597L11.9999 2.67799L12.3996 2.14597L11.9999 1.84562ZM20.2302 3.76951L19.7385 3.86057L19.8011 4.19858L20.1391 4.26116L20.2302 3.76951ZM22.1544 11.9999L21.8541 11.6001L21.3221 11.9999L21.8541 12.3996L22.1544 11.9999ZM20.2306 20.2302L20.1395 19.7385L19.8015 19.8011L19.7389 20.1391L20.2306 20.2302ZM12.0002 22.1544L12.4 21.854L12.0002 21.322L11.6005 21.854L12.0002 22.1544ZM3.76986 20.2302L4.2615 20.1392L4.19892 19.8012L3.86088 19.7386L3.76986 20.2302ZM1.84562 11.9999L2.14597 12.3996L2.67799 11.9999L2.14597 11.6001L1.84562 11.9999ZM8.30763 -0.5C5.80214 -0.5 3.71831 1.30078 3.27793 3.67852L4.26121 3.86063C4.6154 1.94825 6.29291 0.5 8.30763 0.5V-0.5ZM12.3996 1.54528C11.4672 0.304266 9.98125 -0.5 8.30763 -0.5V0.5C9.6535 0.5 10.8484 1.14553 11.6001 2.14597L12.3996 1.54528ZM15.6921 -0.5C14.0185 -0.5 12.5326 0.304268 11.6001 1.54527L12.3996 2.14597C13.1513 1.14553 14.3462 0.5 15.6921 0.5V-0.5ZM20.7218 3.67845C20.2814 1.30074 18.1976 -0.5 15.6921 -0.5V0.5C17.7068 0.5 19.3843 1.94822 19.7385 3.86057L20.7218 3.67845ZM24.5001 8.30763C24.5001 5.80202 22.6991 3.7181 20.3212 3.27787L20.1391 4.26116C22.0517 4.61523 23.5001 6.29281 23.5001 8.30763H24.5001ZM22.4548 12.3996C23.6958 11.4672 24.5001 9.98125 24.5001 8.30763H23.5001C23.5001 9.6535 22.8545 10.8484 21.8541 11.6001L22.4548 12.3996ZM24.5001 15.6921C24.5001 14.0185 23.6958 12.5326 22.4548 11.6001L21.8541 12.3996C22.8545 13.1513 23.5001 14.3462 23.5001 15.6921H24.5001ZM20.3216 20.7218C22.6993 20.2814 24.5001 18.1976 24.5001 15.6921H23.5001C23.5001 17.7068 22.0518 19.3843 20.1395 19.7385L20.3216 20.7218ZM15.6925 24.5C18.1981 24.5 20.282 22.6991 20.7222 20.3212L19.7389 20.1391C19.3849 22.0516 17.7073 23.5 15.6925 23.5V24.5ZM11.6005 22.4547C12.5329 23.6957 14.0188 24.5 15.6925 24.5V23.5C14.3466 23.5 13.1516 22.8545 12.4 21.854L11.6005 22.4547ZM8.30795 24.5C9.98159 24.5 11.4675 23.6957 12.4 22.4547L11.6005 21.854C10.8488 22.8545 9.65383 23.5 8.30795 23.5V24.5ZM3.27822 20.3213C3.7185 22.6991 5.80239 24.5 8.30795 24.5V23.5C6.29317 23.5 4.61562 22.0517 4.2615 20.1392L3.27822 20.3213ZM3.86088 19.7386C1.94838 19.3845 0.5 17.7069 0.5 15.6921H-0.5C-0.5 18.1977 1.30094 20.2816 3.67884 20.7219L3.86088 19.7386ZM0.5 15.6921C0.5 14.3462 1.14553 13.1513 2.14597 12.3996L1.54527 11.6001C0.304268 12.5326 -0.5 14.0185 -0.5 15.6921H0.5ZM-0.5 8.30763C-0.5 9.98125 0.304266 11.4672 1.54528 12.3996L2.14597 11.6001C1.14553 10.8484 0.5 9.6535 0.5 8.30763H-0.5ZM3.67852 3.27793C1.30078 3.71831 -0.5 5.80214 -0.5 8.30763H0.5C0.5 6.29291 1.94825 4.6154 3.86063 4.26121L3.67852 3.27793Z" fill="#636363" mask="url(#path-1-inside-1_246_422)"/>
<ellipse cx="6" cy="13" rx="2" ry="1" fill="#636363"/>
<ellipse cx="18" cy="13" rx="2" ry="1" fill="#636363"/>
<path d="M9 9L10.5 10.5L9 12" stroke="#636363" stroke-width="0.5" stroke-linecap="round"/>
<path d="M14.5 12L13 10.5L14.5 9" stroke="#636363" stroke-width="0.5" stroke-linecap="round"/>
</g>
<defs>
<clipPath id="clip0_246_422">
<rect width="24" height="24" fill="white"/>
</clipPath>
</defs>
</svg>
