<svg width="24" height="24" viewBox="0 0 24 24" fill="none" xmlns="http://www.w3.org/2000/svg">
<path d="M18 9C18 12.3137 15 17 12 20C9 17 6 12.3137 6 9C6 5.68629 8.68629 3 12 3C15.3137 3 18 5.68629 18 9Z" fill="#64557C"/>
<circle cx="12" cy="9" r="5" fill="white"/>
<path d="M13.7143 6C13.7843 6.00001 13.8518 6.02999 13.9041 6.08424C13.9564 6.1385 13.9898 6.21326 13.998 6.29435L14 6.33335V11.667C13.9999 11.752 13.972 11.8337 13.922 11.8955C13.8721 11.9573 13.8037 11.9944 13.731 11.9994C13.6583 12.0044 13.5867 11.9768 13.5309 11.9223C13.4751 11.8677 13.4392 11.7904 13.4306 11.706L13.4286 11.667V10.0002H13.1429C13.0729 10.0002 13.0053 9.97026 12.953 9.916C12.9007 9.86175 12.8673 9.78698 12.8591 9.70589L12.8571 9.66689V7.66677C12.8571 6.93006 13.2857 6 13.7143 6ZM12 6C12.07 6.00001 12.1375 6.02999 12.1898 6.08424C12.2421 6.1385 12.2755 6.21326 12.2837 6.29435L12.2857 6.33335V8.00012C12.2857 8.29576 12.2015 8.58302 12.0463 8.81677C11.8912 9.05051 11.6739 9.21751 11.4286 9.29154V11.667C11.4285 11.752 11.4006 11.8337 11.3506 11.8955C11.3006 11.9573 11.2323 11.9944 11.1596 11.9994C11.0869 12.0044 11.0153 11.9768 10.9595 11.9223C10.9036 11.8677 10.8677 11.7904 10.8591 11.706L10.8571 11.667V9.29154C10.6216 9.22048 10.4115 9.06359 10.2576 8.84368C10.1037 8.62377 10.014 8.35232 10.0014 8.06879L10 8.00012V6.33335C10.0001 6.24839 10.028 6.16667 10.078 6.10488C10.1279 6.0431 10.1963 6.00592 10.269 6.00094C10.3417 5.99596 10.4133 6.02356 10.4691 6.07809C10.5249 6.13263 10.5608 6.20998 10.5694 6.29435L10.5714 6.33335V8.00012C10.5714 8.11715 10.5978 8.23212 10.648 8.33347C10.6981 8.43482 10.7703 8.51898 10.8571 8.57749V6.33335C10.8572 6.24839 10.8851 6.16667 10.9351 6.10488C10.9851 6.0431 11.0534 6.00592 11.1261 6.00094C11.1988 5.99596 11.2704 6.02356 11.3262 6.07809C11.3821 6.13263 11.418 6.20998 11.4266 6.29435L11.4286 6.33335L11.4289 8.57749C11.5086 8.52372 11.576 8.44826 11.6254 8.35754C11.6747 8.26682 11.7045 8.16353 11.7123 8.05646L11.7143 8.00012V6.33335C11.7143 6.24494 11.7444 6.16015 11.798 6.09764C11.8516 6.03512 11.9242 6 12 6Z" fill="#64557C"/>
</svg>
