<svg width="20" height="20" viewBox="0 0 20 20" fill="none" xmlns="http://www.w3.org/2000/svg">
<circle cx="10" cy="10" r="10" fill="#64557C"/>
<path d="M13.3571 3C13.5146 3.00003 13.6666 3.06997 13.7842 3.19657C13.9019 3.32317 13.9771 3.49761 13.9955 3.68682L14 3.77783V16.223C13.9998 16.4213 13.9371 16.612 13.8246 16.7561C13.7121 16.9003 13.5584 16.987 13.3948 16.9987C13.2312 17.0103 13.0702 16.9459 12.9445 16.8186C12.8189 16.6914 12.7381 16.5109 12.7188 16.314L12.7143 16.223V12.3339H12.0714C11.914 12.3339 11.762 12.2639 11.6443 12.1373C11.5267 12.0107 11.4515 11.8363 11.4331 11.6471L11.4286 11.5561V6.88913C11.4286 5.17013 12.3929 3 13.3571 3ZM9.5 3C9.65746 3.00003 9.80943 3.06997 9.9271 3.19657C10.0448 3.32317 10.1199 3.49761 10.1384 3.68682L10.1429 3.77783V7.66695C10.1428 8.35678 9.95333 9.02704 9.60425 9.57246C9.25518 10.1179 8.76626 10.5075 8.21429 10.6803V16.223C8.2141 16.4213 8.15136 16.612 8.03888 16.7561C7.9264 16.9003 7.77267 16.987 7.6091 16.9987C7.44553 17.0103 7.28447 16.9459 7.15882 16.8186C7.03317 16.6914 6.95242 16.5109 6.93307 16.314L6.92857 16.223V10.6803C6.39851 10.5144 5.92598 10.1484 5.57971 9.63525C5.23343 9.12214 5.03148 8.48874 5.00321 7.82719L5 7.66695V3.77783C5.00018 3.57957 5.06292 3.38889 5.1754 3.24473C5.28788 3.10057 5.44161 3.01382 5.60518 3.0022C5.76875 2.99058 5.92982 3.05497 6.05546 3.18222C6.18111 3.30946 6.26186 3.48996 6.28121 3.68682L6.28571 3.77783V7.66695C6.28572 7.94002 6.34513 8.20828 6.45798 8.44476C6.57082 8.68124 6.73312 8.87761 6.92857 9.01415V3.77783C6.92875 3.57957 6.99149 3.38889 7.10397 3.24473C7.21645 3.10057 7.37018 3.01382 7.53375 3.0022C7.69732 2.99058 7.85839 3.05497 7.98404 3.18222C8.10968 3.30946 8.19043 3.48996 8.20979 3.68682L8.21429 3.77783L8.21493 9.01415C8.39433 8.88868 8.546 8.71261 8.65704 8.50093C8.76807 8.28925 8.83518 8.04823 8.85264 7.79841L8.85714 7.66695V3.77783C8.85714 3.57153 8.92487 3.37369 9.04543 3.22782C9.16599 3.08195 9.3295 3 9.5 3Z" fill="white"/>
</svg>
