<svg xmlns="http://www.w3.org/2000/svg" width="24" height="24" viewBox="0 0 24 24" fill="none">
<path d="M20 8.47059C20 13.1488 16 19.7647 12 24C8 19.7647 4 13.1488 4 8.47059C4 3.79241 7.58172 0 12 0C16.4183 0 20 3.79241 20 8.47059Z" fill="#64557C"/>
<circle cx="12" cy="8" r="6" fill="white"/>
<path d="M14.5714 4C14.6764 4.00001 14.7777 4.03998 14.8562 4.11232C14.9346 4.18467 14.9847 4.28435 14.997 4.39247L15 4.44447V11.556C14.9999 11.6693 14.9581 11.7783 14.8831 11.8606C14.8081 11.943 14.7056 11.9926 14.5965 11.9992C14.4875 12.0059 14.3801 11.9691 14.2964 11.8964C14.2126 11.8237 14.1588 11.7205 14.1459 11.608L14.1429 11.556V9.33366H13.7143C13.6093 9.33365 13.508 9.29368 13.4296 9.22134C13.3511 9.14899 13.301 9.04931 13.2887 8.94119L13.2857 8.88919V6.22236C13.2857 5.24008 13.9286 4 14.5714 4ZM12 4C12.105 4.00001 12.2063 4.03998 12.2847 4.11232C12.3632 4.18467 12.4133 4.28435 12.4256 4.39247L12.4286 4.44447V6.66683C12.4285 7.06102 12.3022 7.44403 12.0695 7.75569C11.8368 8.06735 11.5108 8.29002 11.1429 8.38871V11.556C11.1427 11.6693 11.1009 11.7783 11.0259 11.8606C10.9509 11.943 10.8484 11.9926 10.7394 11.9992C10.6304 12.0059 10.523 11.9691 10.4392 11.8964C10.3554 11.8237 10.3016 11.7205 10.2887 11.608L10.2857 11.556V8.38871C9.93234 8.29397 9.61732 8.08478 9.38647 7.79157C9.15562 7.49836 9.02099 7.13642 9.00214 6.75839L9 6.66683V4.44447C9.00012 4.33119 9.04195 4.22222 9.11693 4.13984C9.19192 4.05747 9.29441 4.0079 9.40345 4.00126C9.5125 3.99462 9.61988 4.03141 9.70364 4.10412C9.78741 4.17684 9.84124 4.27997 9.85414 4.39247L9.85714 4.44447V6.66683C9.85715 6.82287 9.89675 6.97616 9.97198 7.11129C10.0472 7.24642 10.1554 7.35864 10.2857 7.43666V4.44447C10.2858 4.33119 10.3277 4.22222 10.4026 4.13984C10.4776 4.05747 10.5801 4.0079 10.6892 4.00126C10.7982 3.99462 10.9056 4.03141 10.9894 4.10412C11.0731 4.17684 11.127 4.27997 11.1399 4.39247L11.1429 4.44447L11.1433 7.43666C11.2629 7.36496 11.364 7.26435 11.438 7.14339C11.512 7.02243 11.5568 6.8847 11.5684 6.74195L11.5714 6.66683V4.44447C11.5714 4.32659 11.6166 4.21354 11.697 4.13018C11.7773 4.04683 11.8863 4 12 4Z" fill="#64557C"/>
</svg>