<svg width="20" height="20" viewBox="0 0 20 20" fill="none" xmlns="http://www.w3.org/2000/svg">
<circle cx="10" cy="10" r="10" fill="white"/>
<path d="M13.3055 16H14.2109C14.6691 16 15.0455 15.6455 15.1 15.1982L16 6.20909H13.2727V4H12.1982V6.20909H9.48727L9.65091 7.48545C10.5836 7.74182 11.4564 8.20545 11.98 8.71818C12.7655 9.49273 13.3055 10.2945 13.3055 11.6036V16ZM4 15.4545V14.9091H12.1982V15.4545C12.1982 15.7491 11.9527 16 11.6364 16H4.54545C4.24545 16 4 15.7491 4 15.4545ZM12.1982 11.6364C12.1982 7.27273 4 7.27273 4 11.6364H12.1982ZM4 12.7273H12.1818V13.8182H4V12.7273Z" fill="#FF8A00"/>
</svg>
