<svg width="24" height="24" viewBox="0 0 24 24" fill="none" xmlns="http://www.w3.org/2000/svg">
<path d="M18 9C18 12.3137 15 17 12 20C9 17 6 12.3137 6 9C6 5.68629 8.68629 3 12 3C15.3137 3 18 5.68629 18 9Z" fill="#FF8A00"/>
<circle cx="12" cy="9" r="5" fill="white"/>
<path d="M13.6527 12H14.1055C14.3345 12 14.5227 11.8227 14.55 11.5991L15 7.10455H13.6364V6H13.0991V7.10455H11.7436L11.8255 7.74273C12.2918 7.87091 12.7282 8.10273 12.99 8.35909C13.3827 8.74636 13.6527 9.14727 13.6527 9.80182V12ZM9 11.7273V11.4545H13.0991V11.7273C13.0991 11.8745 12.9764 12 12.8182 12H9.27273C9.12273 12 9 11.8745 9 11.7273ZM13.0991 9.81818C13.0991 7.63636 9 7.63636 9 9.81818H13.0991ZM9 10.3636H13.0909V10.9091H9V10.3636Z" fill="#FF8A00"/>
</svg>
