<svg xmlns="http://www.w3.org/2000/svg" width="24" height="24" viewBox="0 0 24 24" fill="none">
  <path d="M20 8.47059C20 13.1488 16 19.7647 12 24C8 19.7647 4 13.1488 4 8.47059C4 3.79241 7.58172 0 12 0C16.4183 0 20 3.79241 20 8.47059Z" fill="#FF8A00"/>
  <circle cx="12" cy="8" r="6" fill="white"/>
  <path d="M14.2036 12H14.8073C15.1127 12 15.3636 11.7636 15.4 11.4655L16 5.47273H14.1818V4H13.4655V5.47273H11.6582L11.7673 6.32364C12.3891 6.49455 12.9709 6.80364 13.32 7.14545C13.8436 7.66182 14.2036 8.19636 14.2036 9.06909V12ZM8 11.6364V11.2727H13.4655V11.6364C13.4655 11.8327 13.3018 12 13.0909 12H8.36364C8.16364 12 8 11.8327 8 11.6364ZM13.4655 9.09091C13.4655 6.18182 8 6.18182 8 9.09091H13.4655ZM8 9.81818H13.4545V10.5455H8V9.81818Z" fill="#FF8A00"/>
</svg>