<svg xmlns="http://www.w3.org/2000/svg" width="18" height="18" viewBox="0 0 18 18" fill="none">
<circle cx="9" cy="9" r="8" stroke="#D0D0D0" stroke-width="2"/>
<circle cx="9" cy="9" r="2" fill="#D0D0D0"/>
<path d="M8.5 4C8.5 4.27614 8.72386 4.5 9 4.5C9.27614 4.5 9.5 4.27614 9.5 4H8.5ZM8.5 1V4H9.5V1H8.5Z" fill="#D0D0D0"/>
<path d="M9.5 14C9.5 13.7239 9.27614 13.5 9 13.5C8.72386 13.5 8.5 13.7239 8.5 14H9.5ZM9.5 17V14H8.5V17H9.5Z" fill="#D0D0D0"/>
<path d="M14 8.5C13.7239 8.5 13.5 8.72386 13.5 9C13.5 9.27614 13.7239 9.5 14 9.5L14 8.5ZM17 8.5L14 8.5L14 9.5L17 9.5L17 8.5Z" fill="#D0D0D0"/>
<path d="M4 9.5C4.27614 9.5 4.5 9.27614 4.5 9C4.5 8.72386 4.27614 8.5 4 8.5V9.5ZM1 9.5H4V8.5H1L1 9.5Z" fill="#D0D0D0"/>
</svg>