<svg xmlns="http://www.w3.org/2000/svg" width="24" height="24" viewBox="0 0 24 24" fill="none">
  <path d="M20 8.47059C20 13.1488 16 19.7647 12 24C8 19.7647 4 13.1488 4 8.47059C4 3.79241 7.58172 0 12 0C16.4183 0 20 3.79241 20 8.47059Z" fill="#5E7FF6"/>
  <circle cx="12" cy="8" r="6" fill="white"/>
  <path d="M11.5927 4.796C10.8868 5.50228 10.7617 6.62168 10.7824 7.46864C10.7835 7.51695 10.7661 7.56386 10.7337 7.59973C10.7013 7.6356 10.6564 7.65773 10.6082 7.66156C9.89009 7.70956 9.01287 7.85354 8.29002 8.23844C8.04813 8.36784 7.95918 8.61345 8.01707 8.83743C8.07354 9.05105 8.25473 9.22562 8.50085 9.27173C8.84647 9.33474 9.18859 9.41563 9.52584 9.51406C9.68773 9.56299 9.83267 9.61522 9.95032 9.66934C10.0722 9.72486 10.148 9.77521 10.1866 9.81379C10.2252 9.85237 10.275 9.92813 10.3306 10.0495C10.3847 10.1672 10.4365 10.3121 10.4859 10.4744C10.5838 10.7982 10.6652 11.1727 10.7268 11.4988C10.7729 11.7449 10.9475 11.927 11.1607 11.9825C11.3852 12.0413 11.6309 11.9524 11.7598 11.7096C12.1448 10.9878 12.2892 10.1107 12.3377 9.39266C12.3416 9.34449 12.3637 9.29961 12.3996 9.26724C12.4354 9.23487 12.4823 9.21745 12.5307 9.21856C13.3778 9.23927 14.4978 9.11505 15.2037 8.4083C15.6235 7.98858 15.8324 7.42865 15.928 6.87859C16.024 6.32665 16.0099 5.76483 15.967 5.31641C15.9373 4.98607 15.7926 4.67664 15.558 4.44206C15.3235 4.20748 15.0141 4.06264 14.6837 4.03279C14.2352 3.98998 13.6733 3.97633 13.1222 4.07185C12.5716 4.16737 12.0121 4.37629 11.5927 4.796ZM13.7651 5.17572C13.8587 5.17572 13.9485 5.21291 14.0146 5.27909C14.0808 5.34527 14.118 5.43503 14.118 5.52863C14.118 5.62222 14.0808 5.71198 14.0146 5.77817C13.9485 5.84435 13.8587 5.88153 13.7651 5.88153C13.6715 5.88153 13.5817 5.84435 13.5155 5.77817C13.4493 5.71198 13.4121 5.62222 13.4121 5.52863C13.4121 5.43503 13.4493 5.34527 13.5155 5.27909C13.5817 5.21291 13.6715 5.17572 13.7651 5.17572Z" fill="#5E7FF6"/>
</svg>