<svg width="20" height="20" viewBox="0 0 20 20" fill="none" xmlns="http://www.w3.org/2000/svg">
<circle cx="10" cy="10" r="10" fill="white"/>
<path d="M8.83821 5.2935C7.6911 6.4412 7.48768 8.26023 7.52133 9.63654C7.52314 9.71505 7.49484 9.79127 7.44222 9.84956C7.3896 9.90786 7.31667 9.94381 7.23838 9.95004C6.07139 10.028 4.64592 10.262 3.47128 10.8875C3.07821 11.0977 2.93367 11.4969 3.02774 11.8608C3.1195 12.208 3.41393 12.4916 3.81389 12.5666C4.37552 12.669 4.93146 12.8004 5.47948 12.9603C5.74255 13.0399 5.97809 13.1247 6.16928 13.2127C6.36734 13.3029 6.49047 13.3847 6.55317 13.4474C6.61588 13.5101 6.69695 13.6332 6.78718 13.8305C6.87513 14.0216 6.95925 14.2571 7.03955 14.5209C7.19861 15.047 7.33091 15.6556 7.43109 16.1855C7.50604 16.5854 7.78975 16.8813 8.13618 16.9715C8.50096 17.0671 8.90015 16.9226 9.10969 16.5281C9.73525 15.3551 9.97002 13.9299 10.0488 12.7631C10.055 12.6848 10.091 12.6119 10.1493 12.5593C10.2076 12.5067 10.2838 12.4784 10.3623 12.4802C11.7389 12.5138 13.5589 12.3119 14.706 11.1635C15.3882 10.4814 15.7277 9.57155 15.883 8.67771C16.039 7.78081 16.016 6.86786 15.9464 6.13917C15.8981 5.60236 15.6629 5.09953 15.2818 4.71835C14.9007 4.33716 14.3979 4.1018 13.861 4.05329C13.1322 3.98371 12.2191 3.96154 11.3236 4.11676C10.4289 4.27197 9.51959 4.61146 8.83821 5.2935ZM12.3682 5.91055C12.5204 5.91055 12.6662 5.97097 12.7738 6.07852C12.8814 6.18606 12.9418 6.33193 12.9418 6.48402C12.9418 6.63611 12.8814 6.78197 12.7738 6.88952C12.6662 6.99706 12.5204 7.05748 12.3682 7.05748C12.2161 7.05748 12.0702 6.99706 11.9627 6.88952C11.8551 6.78197 11.7947 6.63611 11.7947 6.48402C11.7947 6.33193 11.8551 6.18606 11.9627 6.07852C12.0702 5.97097 12.2161 5.91055 12.3682 5.91055Z" fill="#5E7FF6"/>
</svg>
