<svg width="24" height="24" viewBox="0 0 24 24" fill="none" xmlns="http://www.w3.org/2000/svg">
<path d="M18 9C18 12.3137 15 17 12 20C9 17 6 12.3137 6 9C6 5.68629 8.68629 3 12 3C15.3137 3 18 5.68629 18 9Z" fill="#5E7FF6"/>
<circle cx="12" cy="9" r="5" fill="white"/>
<path d="M11.6946 6.597C11.1651 7.12671 11.0712 7.96626 11.0868 8.60148C11.0876 8.63771 11.0745 8.67289 11.0503 8.6998C11.026 8.7267 10.9923 8.7433 10.9562 8.74617C10.4176 8.78217 9.75966 8.89016 9.21752 9.17883C9.0361 9.27588 8.96939 9.46009 9.0128 9.62807C9.05516 9.78829 9.19104 9.91922 9.37564 9.9538C9.63485 10.0011 9.89144 10.0617 10.1444 10.1355C10.2658 10.1722 10.3745 10.2114 10.4627 10.252C10.5542 10.2936 10.611 10.3314 10.6399 10.3603C10.6689 10.3893 10.7063 10.4461 10.7479 10.5371C10.7885 10.6254 10.8273 10.7341 10.8644 10.8558C10.9378 11.0986 10.9989 11.3795 11.0451 11.6241C11.0797 11.8086 11.2107 11.9452 11.3705 11.9869C11.5389 12.031 11.7231 11.9643 11.8199 11.7822C12.1086 11.2408 12.2169 10.583 12.2533 10.0445C12.2562 10.0084 12.2728 9.97471 12.2997 9.95043C12.3266 9.92615 12.3618 9.91309 12.398 9.91392C13.0333 9.92945 13.8734 9.83628 14.4028 9.30623C14.7176 8.99144 14.8743 8.57149 14.946 8.15894C15.018 7.74499 15.0074 7.32363 14.9753 6.98731C14.953 6.73955 14.8444 6.50748 14.6685 6.33154C14.4926 6.15561 14.2606 6.04698 14.0128 6.0246C13.6764 5.99248 13.255 5.98225 12.8417 6.05389C12.4287 6.12553 12.009 6.28221 11.6946 6.597ZM13.3238 6.88179C13.394 6.88179 13.4613 6.90968 13.511 6.95932C13.5606 7.00895 13.5885 7.07627 13.5885 7.14647C13.5885 7.21667 13.5606 7.28399 13.511 7.33362C13.4613 7.38326 13.394 7.41115 13.3238 7.41115C13.2536 7.41115 13.1863 7.38326 13.1366 7.33362C13.087 7.28399 13.0591 7.21667 13.0591 7.14647C13.0591 7.07627 13.087 7.00895 13.1366 6.95932C13.1863 6.90968 13.2536 6.88179 13.3238 6.88179Z" fill="#5E7FF6"/>
</svg>
