<svg width="24" height="24" viewBox="0 0 24 24" fill="none" xmlns="http://www.w3.org/2000/svg">
<path d="M18 9C18 12.3137 15 17 12 20C9 17 6 12.3137 6 9C6 5.68629 8.68629 3 12 3C15.3137 3 18 5.68629 18 9Z" fill="#5DB6F5"/>
<circle cx="12" cy="9" r="5" fill="white"/>
<path d="M14.7 8.21527C14.6945 8.02216 14.642 7.83377 14.5474 7.66811C14.4529 7.50245 14.3195 7.36506 14.16 7.26909C14.1218 6.99436 13.9906 6.74333 13.7906 6.56201C13.5906 6.3807 13.3351 6.28125 13.071 6.2819C12.9697 6.28172 12.8689 6.2955 12.771 6.3229C12.5645 6.11565 12.29 6 12.0045 6C11.719 6 11.4445 6.11565 11.238 6.3229C11.1401 6.2955 11.0393 6.28172 10.938 6.2819C10.6729 6.27973 10.4159 6.37849 10.2147 6.55994C10.0134 6.74139 9.88139 6.99328 9.843 7.26909C9.68295 7.36466 9.54896 7.50188 9.45387 7.66757C9.35879 7.83326 9.3058 8.02186 9.3 8.21527C9.22044 8.21527 9.14413 8.2485 9.08787 8.30765C9.03161 8.36679 9 8.44702 9 8.53066C9.00001 9.08428 9.13864 9.62815 9.40194 10.1076C9.66525 10.587 10.044 10.9852 10.5 11.262V11.6846C10.5 11.7683 10.5316 11.8485 10.5879 11.9076C10.6441 11.9668 10.7204 12 10.8 12H13.2C13.2796 12 13.3559 11.9668 13.4121 11.9076C13.4684 11.8485 13.5 11.7683 13.5 11.6846V11.262C13.956 10.9852 14.3348 10.587 14.5981 10.1076C14.8614 9.62815 15 9.08428 15 8.53066C15 8.44702 14.9684 8.36679 14.9121 8.30765C14.8559 8.2485 14.7796 8.21527 14.7 8.21527ZM9.9 8.21527C9.90762 8.11563 9.94339 8.02065 10.0027 7.94253C10.0621 7.86442 10.1423 7.80673 10.233 7.77687L10.482 7.69487L10.434 7.42678C10.4348 7.35886 10.4483 7.29176 10.4737 7.22932C10.4992 7.16688 10.5361 7.11032 10.5823 7.06287C10.6286 7.01543 10.6833 6.97802 10.7433 6.95279C10.8033 6.92757 10.8674 6.91501 10.932 6.91585C11.0186 6.91532 11.1041 6.93697 11.181 6.97892L11.424 7.12085L11.574 6.878C11.6209 6.80449 11.6843 6.74425 11.7586 6.7026C11.8329 6.66095 11.9158 6.63916 12 6.63916C12.0842 6.63916 12.1671 6.66095 12.2414 6.7026C12.3157 6.74425 12.3791 6.80449 12.426 6.878L12.576 7.12085L12.819 6.97892C12.8959 6.93697 12.9814 6.91532 13.068 6.91585C13.1978 6.91413 13.323 6.96605 13.4167 7.06044C13.5104 7.15482 13.5651 7.28411 13.569 7.42048L13.521 7.68856L13.767 7.77687C13.8577 7.80673 13.9379 7.86442 13.9973 7.94253C14.0566 8.02065 14.0924 8.11563 14.1 8.21527H9.9Z" fill="#5DB6F5"/>
</svg>
