<svg width="20" height="20" viewBox="0 0 20 20" fill="none" xmlns="http://www.w3.org/2000/svg">
<circle cx="10" cy="10" r="10" fill="white"/>
<path d="M16.3 8.16896C16.2872 7.71838 16.1646 7.27879 15.944 6.89225C15.7234 6.50571 15.4121 6.18513 15.04 5.9612C14.9508 5.32017 14.6447 4.73443 14.178 4.31137C13.7113 3.8883 13.1152 3.65626 12.499 3.65777C12.2627 3.65735 12.0273 3.68951 11.799 3.75344C11.3172 3.26984 10.6766 3 10.0105 3C9.34435 3 8.70382 3.26984 8.222 3.75344C7.99365 3.68951 7.75831 3.65735 7.522 3.65777C6.90336 3.6527 6.30387 3.88313 5.83424 4.30652C5.36461 4.72991 5.05657 5.31765 4.967 5.9612C4.59356 6.18422 4.28091 6.50439 4.05904 6.891C3.83717 7.2776 3.71354 7.71767 3.7 8.16896C3.51435 8.16896 3.3363 8.2465 3.20503 8.38451C3.07375 8.52252 3 8.7097 3 8.90488C3.00003 10.1967 3.32349 11.4657 3.93787 12.5844C4.55224 13.7031 5.43589 14.6321 6.5 15.2779V16.2641C6.5 16.4593 6.57375 16.6464 6.70503 16.7845C6.8363 16.9225 7.01435 17 7.2 17H12.8C12.9857 17 13.1637 16.9225 13.295 16.7845C13.4263 16.6464 13.5 16.4593 13.5 16.2641V15.2779C14.5641 14.6321 15.4478 13.7031 16.0621 12.5844C16.6765 11.4657 17 10.1967 17 8.90488C17 8.7097 16.9263 8.52252 16.795 8.38451C16.6637 8.2465 16.4857 8.16896 16.3 8.16896ZM5.1 8.16896C5.11778 7.93646 5.20125 7.71485 5.3397 7.53258C5.47815 7.35031 5.66526 7.2157 5.877 7.14603L6.458 6.9547L6.346 6.32916C6.34783 6.17067 6.37933 6.0141 6.43872 5.86841C6.49811 5.72271 6.58421 5.59074 6.69212 5.48003C6.80002 5.36933 6.92761 5.28205 7.0676 5.22319C7.20759 5.16432 7.35724 5.13503 7.508 5.13697C7.71016 5.13576 7.90956 5.18627 8.089 5.28416L8.656 5.61532L9.006 5.04866C9.11546 4.87715 9.26339 4.73659 9.43674 4.6394C9.6101 4.54221 9.80354 4.49138 10 4.49138C10.1965 4.49138 10.3899 4.54221 10.5633 4.6394C10.7366 4.73659 10.8845 4.87715 10.994 5.04866L11.344 5.61532L11.911 5.28416C12.0904 5.18627 12.2898 5.13576 12.492 5.13697C12.7948 5.13297 13.0869 5.25412 13.3056 5.47435C13.5242 5.69457 13.6518 5.99626 13.661 6.31445L13.549 6.93998L14.123 7.14603C14.3347 7.2157 14.5218 7.35031 14.6603 7.53258C14.7987 7.71485 14.8822 7.93646 14.9 8.16896H5.1Z" fill="#5DB6F5"/>
</svg>
