<svg xmlns="http://www.w3.org/2000/svg" width="24" height="24" viewBox="0 0 24 24" fill="none">
  <path d="M20 8.47059C20 13.1488 16 19.7647 12 24C8 19.7647 4 13.1488 4 8.47059C4 3.79241 7.58172 0 12 0C16.4183 0 20 3.79241 20 8.47059Z" fill="#5DB6F5"/>
  <circle cx="12" cy="8" r="6" fill="white"/>
  <path d="M15.6 6.95369C15.5927 6.69622 15.5226 6.44502 15.3966 6.22414C15.2705 6.00326 15.0926 5.82008 14.88 5.69212C14.829 5.32581 14.6541 4.9911 14.3875 4.74935C14.1208 4.5076 13.7801 4.375 13.428 4.37587C13.293 4.37563 13.1585 4.39401 13.028 4.43054C12.7527 4.15419 12.3867 4 12.006 4C11.6253 4 11.2593 4.15419 10.984 4.43054C10.8535 4.39401 10.719 4.37563 10.584 4.37587C10.2305 4.37297 9.88793 4.50465 9.61957 4.74658C9.35121 4.98852 9.17518 5.32437 9.124 5.69212C8.91061 5.81955 8.73195 6.00251 8.60517 6.22343C8.47838 6.44434 8.40774 6.69581 8.4 6.95369C8.29391 6.95369 8.19217 6.998 8.11716 7.07686C8.04214 7.15573 8 7.26269 8 7.37422C8.00002 8.11238 8.18485 8.83753 8.53592 9.47679C8.887 10.116 9.39194 10.6469 10 11.016V11.5795C10 11.691 10.0421 11.798 10.1172 11.8768C10.1922 11.9557 10.2939 12 10.4 12H13.6C13.7061 12 13.8078 11.9557 13.8828 11.8768C13.9579 11.798 14 11.691 14 11.5795V11.016C14.6081 10.6469 15.113 10.116 15.4641 9.47679C15.8151 8.83753 16 8.11238 16 7.37422C16 7.26269 15.9579 7.15573 15.8828 7.07686C15.8078 6.998 15.7061 6.95369 15.6 6.95369ZM9.2 6.95369C9.21016 6.82083 9.25786 6.6942 9.33697 6.59004C9.41609 6.48589 9.523 6.40897 9.644 6.36916L9.976 6.25983L9.912 5.90238C9.91304 5.81181 9.93105 5.72234 9.96498 5.63909C9.99892 5.55584 10.0481 5.48042 10.1098 5.41716C10.1714 5.3539 10.2443 5.30403 10.3243 5.27039C10.4043 5.23676 10.4899 5.22002 10.576 5.22113C10.6915 5.22043 10.8055 5.2493 10.908 5.30523L11.232 5.49447L11.432 5.17066C11.4945 5.07266 11.5791 4.99234 11.6781 4.9368C11.7772 4.88126 11.8877 4.85221 12 4.85221C12.1123 4.85221 12.2228 4.88126 12.3219 4.9368C12.4209 4.99234 12.5055 5.07266 12.568 5.17066L12.768 5.49447L13.092 5.30523C13.1945 5.2493 13.3085 5.22043 13.424 5.22113C13.597 5.21884 13.764 5.28807 13.8889 5.41391C14.0138 5.53976 14.0868 5.71215 14.092 5.89397L14.028 6.25142L14.356 6.36916C14.477 6.40897 14.5839 6.48589 14.663 6.59004C14.7421 6.6942 14.7898 6.82083 14.8 6.95369H9.2Z" fill="#5DB6F5"/>
</svg>