<svg width="24" height="24" viewBox="0 0 24 24" fill="none" xmlns="http://www.w3.org/2000/svg">
<path d="M21.7552 20.668C21.8307 20.7384 21.8914 20.8233 21.9334 20.9177C21.9755 21.0121 21.9981 21.1139 21.9999 21.2172C22.0017 21.3205 21.9827 21.4231 21.944 21.5189C21.9053 21.6146 21.8477 21.7017 21.7747 21.7747C21.7017 21.8477 21.6146 21.9053 21.5189 21.944C21.4231 21.9827 21.3205 22.0017 21.2172 21.9999C21.1139 21.9981 21.0121 21.9755 20.9177 21.9334C20.8233 21.8914 20.7384 21.8307 20.668 21.7552L11.9808 13.0693L3.29363 21.7552C3.14781 21.8911 2.95494 21.965 2.75566 21.9615C2.55638 21.958 2.36624 21.8773 2.2253 21.7363C2.08437 21.5954 2.00364 21.4052 2.00012 21.206C1.9966 21.0067 2.07058 20.8138 2.20645 20.668L10.8924 11.9808L2.20645 3.29363C2.07058 3.14781 1.9966 2.95494 2.00012 2.75566C2.00364 2.55638 2.08437 2.36624 2.2253 2.2253C2.36624 2.08437 2.55638 2.00364 2.75566 2.00012C2.95494 1.9966 3.14781 2.07058 3.29363 2.20645L11.9808 10.8924L20.668 2.20645C20.8138 2.07058 21.0067 1.9966 21.206 2.00012C21.4052 2.00364 21.5954 2.08437 21.7363 2.2253C21.8773 2.36624 21.958 2.55638 21.9615 2.75566C21.965 2.95494 21.8911 3.14781 21.7552 3.29363L13.0693 11.9808L21.7552 20.668Z" fill="#303030"/>
</svg>
