<svg width="60" height="60" viewBox="0 0 60 60" fill="none" xmlns="http://www.w3.org/2000/svg">
<g clip-path="url(#clip0_660_1362)">
<path fill-rule="evenodd" clip-rule="evenodd" d="M29.9995 4.61417C32.1047 1.81229 35.4558 0 39.2302 0C44.8806 0 49.5823 4.06142 50.5754 9.42421C55.9384 10.4171 60 15.119 60 20.7695C60 24.5437 58.1879 27.8947 55.3863 29.9999C58.1879 32.105 60 35.456 60 39.2302C60 44.8804 55.9389 49.582 50.5764 50.5753C49.5835 55.9383 44.8817 60 39.2312 60C35.4567 60 32.1056 58.1877 30.0005 55.3858C27.8953 58.1877 24.5442 60 20.7698 60C15.1193 60 10.4175 55.9384 9.42451 50.5755C4.06158 49.5825 0 44.8807 0 39.2302C0 35.456 1.81211 32.105 4.61375 29.9999C1.81211 27.8947 0 24.5437 0 20.7695C0 15.1193 4.06113 10.4177 9.42362 9.42439C10.4166 4.06152 15.1184 0 20.7688 0C24.5433 0 27.8944 1.81229 29.9995 4.61417ZM44.8858 42.9249C44.8103 42.7429 44.6998 42.5774 44.5604 42.4381L32.1205 30L44.5604 17.5619C44.8419 17.2805 45 16.8988 45 16.5007C45 16.1027 44.8419 15.721 44.5604 15.4396C44.279 15.1581 43.8973 15 43.4992 15C43.1012 15 42.7195 15.1581 42.4381 15.4396L30 27.8795L17.5619 15.4396C17.2805 15.1581 16.8988 15 16.5007 15C16.1027 15 15.721 15.1581 15.4396 15.4396C15.1581 15.721 15 16.1027 15 16.5007C15 16.8988 15.1581 17.2805 15.4396 17.5619L27.8795 30L15.4396 42.4381C15.1581 42.7195 15 43.1012 15 43.4992C15 43.8973 15.1581 44.279 15.4396 44.5604C15.721 44.8419 16.1027 45 16.5007 45C16.8988 45 17.2805 44.8419 17.5619 44.5604L30 32.1205L42.4381 44.5604C42.5774 44.6998 42.7429 44.8103 42.9249 44.8858C43.107 44.9612 43.3022 45 43.4992 45C43.6963 45 43.8915 44.9612 44.0736 44.8858C44.2556 44.8103 44.4211 44.6998 44.5604 44.5604C44.6998 44.4211 44.8103 44.2556 44.8858 44.0736C44.9612 43.8915 45 43.6963 45 43.4992C45 43.3022 44.9612 43.107 44.8858 42.9249Z" fill="#D0D0D0"/>
</g>
<defs>
<clipPath id="clip0_660_1362">
<rect width="60" height="60" fill="white"/>
</clipPath>
</defs>
</svg>
