<svg width="24" height="24" viewBox="0 0 24 24" fill="none" xmlns="http://www.w3.org/2000/svg">
<g clip-path="url(#clip0_416_891)">
<path d="M2.48641 2.52965C2.79827 2.21885 3.221 2.04427 3.66175 2.04427C4.1025 2.04427 4.52523 2.21885 4.83709 2.52965L11.9778 9.65528L19.1185 2.52965C19.3218 2.31118 19.5804 2.15147 19.867 2.06735C20.1537 1.98323 20.4577 1.97781 20.7472 2.05166C21.0366 2.12551 21.3008 2.2759 21.5117 2.48699C21.7227 2.69807 21.8728 2.96204 21.946 3.25107C22.0201 3.53958 22.0149 3.84269 21.931 4.12852C21.8471 4.41435 21.6876 4.67234 21.4692 4.87536L14.3285 12.001L21.4692 19.1266C21.6882 19.3295 21.8482 19.5875 21.9325 19.8735C22.0168 20.1595 22.0222 20.463 21.9482 20.7518C21.8742 21.0406 21.7235 21.3042 21.512 21.5148C21.3004 21.7253 21.0359 21.875 20.7463 21.9481C20.4572 22.022 20.1534 22.0169 19.867 21.9332C19.5805 21.8494 19.322 21.6902 19.1185 21.4723L11.9778 14.3467L4.83709 21.4723C4.52161 21.7653 4.10458 21.9249 3.67366 21.9175C3.24274 21.91 2.83148 21.7362 2.52633 21.4325C2.22198 21.128 2.04777 20.7176 2.04033 20.2876C2.03288 19.8576 2.19278 19.4414 2.48641 19.1266L9.62714 12.001L2.48641 4.87536C2.17495 4.56416 2 4.14233 2 3.70251C2 3.26268 2.17495 2.84085 2.48641 2.52965Z" fill="#303030"/>
</g>
<defs>
<clipPath id="clip0_416_891">
<rect width="24" height="24" fill="white"/>
</clipPath>
</defs>
</svg>
