<svg width="232" height="26" viewBox="0 0 232 26" fill="none" xmlns="http://www.w3.org/2000/svg">
<path d="M149.533 20.5826H163.383V25.5658H144.05V0.433164H149.533V20.5826ZM119.41 25.5658H138.744V20.6476H124.818V15.4586H137.133V10.5404H124.818V5.35136H138.744V0.433164H119.41V25.5658ZM168.565 25.5658H174.049V0.433164H168.565V25.5658ZM63.4833 0.433164H58.0002V25.5658H77.3335V20.5826H63.4833V0.433164ZM82.5159 25.5658H87.9991V0.433164H82.5159V25.5658ZM226.517 0.433164V16.141L214.879 0.70399L214.675 0.433164H209.396V25.5658H214.879V9.60332L226.517 25.0187L226.931 25.5604H232V0.433164H226.517ZM204.074 7.88087C203.428 6.34462 202.484 4.95419 201.298 3.7914C200.083 2.60802 198.656 1.66869 197.093 1.02356C193.659 -0.341188 189.84 -0.341188 186.406 1.02356C184.847 1.65931 183.428 2.59894 182.23 3.78864C181.032 4.97834 180.079 6.39474 179.424 7.9567C178.745 9.54946 178.398 11.2658 178.404 12.9995V13.0699C178.386 14.8011 178.715 16.5181 179.371 18.1181C180.014 19.6555 180.959 21.0463 182.147 22.2075C183.362 23.389 184.789 24.3265 186.352 24.97C188.044 25.668 189.857 26.0179 191.685 25.9991C193.524 26.0202 195.35 25.6722 197.055 24.9754C198.614 24.3413 200.033 23.4029 201.231 22.214C202.429 21.0251 203.383 19.6092 204.037 18.0477C204.712 16.4526 205.054 14.734 205.041 12.9995V12.9291C205.059 11.1979 204.73 9.48089 204.074 7.88087ZM199.397 13.0699C199.41 14.122 199.228 15.1674 198.86 16.1519C198.498 17.085 197.968 17.9426 197.297 18.6814C196.62 19.4171 195.796 20.0003 194.88 20.393C193.906 20.8113 192.856 21.0215 191.798 21.0105C190.729 21.0263 189.67 20.8082 188.693 20.3713C187.775 19.9604 186.947 19.371 186.255 18.6367C185.563 17.9025 185.021 17.0379 184.66 16.0923C184.29 15.1045 184.108 14.0553 184.123 12.9995V12.9291C184.108 11.8767 184.29 10.831 184.66 9.84706C185.022 8.91391 185.552 8.05632 186.223 7.31755C186.895 6.58591 187.711 6.00306 188.618 5.60593C189.599 5.18458 190.656 4.97427 191.722 4.98845C192.785 4.9772 193.838 5.19512 194.81 5.6276C195.732 6.03463 196.564 6.62191 197.259 7.35546C197.954 8.08902 198.498 8.95429 198.86 9.90123C199.227 10.8917 199.409 11.9421 199.397 12.9995V13.0699ZM115.463 0.433164H108.868L98.7559 11.2174V0.433164H93.2728V25.5658H98.7559V17.8743L101.64 14.8628L109.368 25.5658H115.952L105.34 11.0983L115.463 0.433164ZM33.8335 9.57082L48.3335 0.433164H33.8335V9.57082Z" fill="#1C1B1A"/>
<path d="M33.8333 19.0664V25.5662H14.5V9.57125L0 0.433594H17.0778V19.0664H33.8333Z" fill="#FF7710"/>
</svg>
