<svg width="60" height="60" viewBox="0 0 60 60" fill="none" xmlns="http://www.w3.org/2000/svg">
<g clip-path="url(#clip0_922_1674)">
<path fill-rule="evenodd" clip-rule="evenodd" d="M29.9995 4.61417C32.1047 1.81229 35.4558 0 39.2302 0C44.8806 0 49.5823 4.06142 50.5754 9.42421C55.9384 10.4171 60 15.119 60 20.7695C60 24.5437 58.1879 27.8947 55.3863 29.9999C58.1879 32.105 60 35.456 60 39.2302C60 44.8804 55.9389 49.582 50.5764 50.5753C49.5835 55.9383 44.8817 60 39.2312 60C35.4567 60 32.1056 58.1877 30.0005 55.3858C27.8953 58.1877 24.5442 60 20.7698 60C15.1193 60 10.4175 55.9384 9.42451 50.5755C4.06158 49.5825 0 44.8807 0 39.2302C0 35.456 1.81211 32.105 4.61375 29.9999C1.81211 27.8947 0 24.5437 0 20.7695C0 15.1193 4.06113 10.4177 9.42362 9.42439C10.4166 4.06152 15.1184 0 20.7688 0C24.5433 0 27.8944 1.81229 29.9995 4.61417ZM27.9 25.475L28.425 34.7H30.825L31.35 25.475L31.475 22H27.775L27.9 25.475ZM27.35 38.95C27.35 40.3 28.325 41.35 29.625 41.35C30.925 41.35 31.925 40.3 31.925 38.95C31.925 37.575 30.925 36.55 29.625 36.55C28.325 36.55 27.35 37.575 27.35 38.95Z" fill="#D0D0D0"/>
</g>
<defs>
<clipPath id="clip0_922_1674">
<rect width="60" height="60" fill="white"/>
</clipPath>
</defs>
</svg>
