<svg xmlns="http://www.w3.org/2000/svg" viewBox="0 0 432 48"><defs><style>.cls-1{fill:#1c1b1a;}.cls-2{fill:#ff7710;}</style></defs><g id="Layer_2" data-name="Layer 2"><g id="logo_vector"><path class="cls-1" d="M278.44,38h25.79V47.2h-36V.8h10.21ZM222.35,47.2h36V38.12H232.42V28.54h22.93V19.46H232.42V9.88h25.93V.8h-36Zm91.53,0h10.21V.8H313.88ZM118.21.8H108V47.2h36V38H118.21Zm35.44,46.4h10.21V.8H153.65ZM421.79.8v29L400.12,1.3l-.38-.5h-9.83V47.2h10.21V17.73l21.67,28.46.77,1H432V.8ZM380,14.55A23.1,23.1,0,0,0,374.83,7,24.78,24.78,0,0,0,367,1.89a27.14,27.14,0,0,0-19.9,0,23.8,23.8,0,0,0-13,12.8A23.38,23.38,0,0,0,332.2,24v.13A23.76,23.76,0,0,0,334,33.45,22.94,22.94,0,0,0,339.17,41a24.78,24.78,0,0,0,7.83,5.1A25.54,25.54,0,0,0,356.93,48a25.85,25.85,0,0,0,10-1.89,23.76,23.76,0,0,0,13-12.79A23.27,23.27,0,0,0,381.8,24v-.13A23.76,23.76,0,0,0,380,14.55Zm-8.71,9.58a15.54,15.54,0,0,1-1,5.69,15,15,0,0,1-2.91,4.67,13.17,13.17,0,0,1-4.5,3.16,14.28,14.28,0,0,1-5.74,1.14,13.76,13.76,0,0,1-5.78-1.18,14.23,14.23,0,0,1-7.51-7.9,15.52,15.52,0,0,1-1-5.71v-.13a15.38,15.38,0,0,1,1-5.69,15,15,0,0,1,2.91-4.67,13.3,13.3,0,0,1,4.46-3.16,14.27,14.27,0,0,1,5.78-1.14,13.89,13.89,0,0,1,5.75,1.18,14.17,14.17,0,0,1,7.54,7.89,15.82,15.82,0,0,1,1,5.72ZM215,.8H202.72L183.89,20.71V.8H173.68V47.2h10.21V33l5.37-5.56L203.65,47.2h12.26L196.15,20.49ZM63,17.67,90,.8H63Z"/><path class="cls-2" d="M63,35.2v12H27V17.67L0,.8H31.8V35.2Z"/></g></g></svg>