<svg width="45" height="6" viewBox="0 0 45 6" fill="none" xmlns="http://www.w3.org/2000/svg">
<path d="M28.7562 4.45819H31.4197V5.4165H27.7018V0.583301H28.7562V4.45819ZM22.9634 5.4165H26.6814V4.47069H24.0034V3.4728H26.3716V2.52699H24.0034V1.52911H26.6814V0.583301H22.9634V5.4165ZM32.4163 5.4165H33.4708V0.583301H32.4163V5.4165ZM12.2082 0.583301H11.1538V5.4165H14.8717V4.45819H12.2082V0.583301ZM15.8683 5.4165H16.9228V0.583301H15.8683V5.4165ZM43.5609 0.583301V3.60405L41.3229 0.635383L41.2836 0.583301H40.2684V5.4165H41.3229V2.34679L43.5609 5.31129L43.6404 5.41545H44.6153V0.583301H43.5609ZM39.2449 2.01555C39.1207 1.72012 38.9392 1.45273 38.711 1.22912C38.4774 1.00154 38.203 0.820902 37.9024 0.696839C37.242 0.434387 36.5075 0.434387 35.8472 0.696839C35.5474 0.819097 35.2745 0.999796 35.0442 1.22858C34.8138 1.45737 34.6304 1.72976 34.5046 2.03013C34.374 2.33643 34.3072 2.6665 34.3083 2.9999V3.01344C34.3049 3.34636 34.3682 3.67655 34.4942 3.98425C34.618 4.2799 34.7996 4.54736 35.0282 4.77068C35.2619 4.99788 35.5363 5.17816 35.8368 5.30192C36.1622 5.43615 36.5109 5.50344 36.8624 5.49983C37.2162 5.50388 37.5672 5.43696 37.8951 5.30296C38.1949 5.18102 38.4678 5.00055 38.6982 4.77192C38.9286 4.54329 39.1119 4.27101 39.2377 3.9707C39.3676 3.66395 39.4334 3.33346 39.4308 2.9999V2.98636C39.4342 2.65344 39.371 2.32325 39.2449 2.01555ZM38.3454 3.01344C38.348 3.21578 38.313 3.41681 38.2421 3.60613C38.1726 3.78558 38.0707 3.95051 37.9416 4.09258C37.8114 4.23405 37.653 4.34622 37.4769 4.42173C37.2895 4.50217 37.0877 4.5426 36.8841 4.54048C36.6786 4.54352 36.4749 4.50158 36.2871 4.41757C36.1106 4.33854 35.9512 4.22519 35.8181 4.08399C35.685 3.94279 35.5808 3.77651 35.5115 3.59467C35.4404 3.40472 35.4053 3.20294 35.4082 2.9999V2.98636C35.4052 2.78399 35.4403 2.58288 35.5115 2.39367C35.5811 2.21421 35.683 2.04929 35.812 1.90722C35.9413 1.76652 36.0982 1.65444 36.2727 1.57806C36.4613 1.49703 36.6646 1.45659 36.8696 1.45932C37.074 1.45715 37.2764 1.49906 37.4634 1.58223C37.6406 1.66051 37.8007 1.77344 37.9344 1.91451C38.068 2.05558 38.1726 2.22198 38.2421 2.40408C38.3127 2.59456 38.3477 2.79657 38.3454 2.9999V3.01344ZM22.2044 0.583301H20.9361L18.9914 2.6572V0.583301H17.937V5.4165H18.9914V3.93737L19.546 3.35822L21.0322 5.4165H22.2983L20.2576 2.63428L22.2044 0.583301ZM6.50635 2.34054L9.29481 0.583301H6.50635V2.34054Z" fill="#1C1B1A"/>
<path d="M6.50641 4.16624V5.4162H2.78846V2.34025L0 0.583008H3.28419V4.16624H6.50641Z" fill="#FF7710"/>
</svg>
