<svg width="30" height="30" viewBox="0 0 30 30" fill="none" xmlns="http://www.w3.org/2000/svg">
<path fill-rule="evenodd" clip-rule="evenodd" d="M9.99826 15.0068C11.1038 15.0068 12 13.2144 12 11.0034C12 8.79239 11.1038 7 9.99826 7C9.10781 7 8.35316 8.16285 8.09325 9.77069L10.0184 10.5036L8 11.2403C8.06129 13.3411 8.93251 15.0068 9.99826 15.0068Z" fill="black"/>
<path fill-rule="evenodd" clip-rule="evenodd" d="M19.9983 15.0068C21.1038 15.0068 22 13.2144 22 11.0034C22 8.79239 21.1038 7 19.9983 7C19.1078 7 18.3532 8.16285 18.0932 9.77069L20.0184 10.5036L18 11.2403C18.0613 13.3411 18.9325 15.0068 19.9983 15.0068Z" fill="black"/>
<ellipse cx="4" cy="17.5" rx="3" ry="1.5" fill="#FF6A6A"/>
<ellipse cx="26" cy="17.5" rx="3" ry="1.5" fill="#FF6A6A"/>
<path d="M20 20C20 22.2091 17.7614 24 15 24C12.2386 24 10 22.2091 10 20C10 17.7909 12.2386 16 15 16C17.7614 16 20 17.7909 20 20Z" fill="#E75A5A"/>
<path fill-rule="evenodd" clip-rule="evenodd" d="M15.0263 16.0001C15.0266 16.0191 15.0268 16.0381 15.0269 16.0572C15.0269 16.0381 15.0271 16.0191 15.0274 16.0001C15.7606 16.0038 16.4475 16.1566 17.0392 16.421C16.9578 17.3978 16.5415 18.1415 16.0402 18.1415C15.4828 18.1415 15.0304 17.2217 15.0269 16.0843C15.0233 17.2217 14.571 18.1415 14.0135 18.1415C13.5083 18.1415 13.0895 17.3863 13.0127 16.3983C13.5999 16.1447 14.278 16 15.0001 16C15.0089 16 15.0176 16 15.0263 16.0001Z" fill="white"/>
</svg>
