<svg width="30" height="30" viewBox="0 0 30 30" fill="none" xmlns="http://www.w3.org/2000/svg">
<path fill-rule="evenodd" clip-rule="evenodd" d="M9.99826 15.0068C11.1038 15.0068 12 13.2144 12 11.0034C12 8.79239 11.1038 7 9.99826 7C9.10781 7 8.35316 8.16285 8.09325 9.77069L10.0184 10.5036L8 11.2403C8.06129 13.3411 8.93251 15.0068 9.99826 15.0068Z" fill="black"/>
<path fill-rule="evenodd" clip-rule="evenodd" d="M19.9983 15.0068C21.1038 15.0068 22 13.2144 22 11.0034C22 8.79239 21.1038 7 19.9983 7C19.1078 7 18.3532 8.16285 18.0932 9.77069L20.0184 10.5036L18 11.2403C18.0613 13.3411 18.9325 15.0068 19.9983 15.0068Z" fill="black"/>
<path fill-rule="evenodd" clip-rule="evenodd" d="M10 17.0002C10.0001 19.7615 12.4625 22 15.5 22C18.5375 22 20.9999 19.7615 21 17.0002H10Z" fill="#E75A5A"/>
<path fill-rule="evenodd" clip-rule="evenodd" d="M14 17C14 18.1046 14.3358 19 14.75 19C15.1642 19 15.5 18.1046 15.5 17C15.5 18.1046 15.8358 19 16.25 19C16.6642 19 17 18.1046 17 17H15.5H14Z" fill="white"/>
<ellipse cx="4" cy="17.5" rx="3" ry="1.5" fill="#FF6A6A"/>
<ellipse cx="26" cy="17.5" rx="3" ry="1.5" fill="#FF6A6A"/>
</svg>
