<svg width="24" height="24" viewBox="0 0 24 24" fill="none" xmlns="http://www.w3.org/2000/svg">
<circle cx="12" cy="12" r="12" fill="white"/>
<path d="M19 11.9999C19 13.4536 18.5895 14.8746 17.8203 16.0833C17.0511 17.2921 15.9579 18.2341 14.6788 18.7904C13.3997 19.3467 11.9922 19.4923 10.6344 19.2087C9.2765 18.9251 8.02922 18.2251 7.05025 17.1971C6.07128 16.1692 5.4046 14.8596 5.1345 13.4338C4.8644 12.0081 5.00303 10.5302 5.53284 9.18718C6.06266 7.84415 6.95986 6.69623 8.11101 5.88861C9.26215 5.08098 10.6155 4.64991 12 4.64991C14.0053 4.64758 15.9341 5.45767 17.3846 6.91145" stroke="black" stroke-linecap="round" stroke-linejoin="round"/>
<path d="M16.8461 4.6499L17.3845 6.91144L15.2307 7.47683" stroke="black" stroke-linecap="round" stroke-linejoin="round"/>
</svg>
