<svg width="50" height="18" viewBox="0 0 50 18" fill="none" xmlns="http://www.w3.org/2000/svg">
<g clip-path="url(#clip0_430_901)">
<path d="M2.376 6.092V11.264C4.14 11.252 5.328 11.192 6.708 10.94L6.828 11.936C5.328 12.224 4.008 12.296 1.992 12.296H1.14V5.084H6.06V6.092H2.376ZM8.376 4.076H9.612V14.948H8.376V8.948H5.472V7.928H8.376V4.076ZM13.9791 7.628V9.404H19.1151V7.628H13.9791ZM17.1591 12.584H21.4671V13.604H11.6511V12.584H15.9231V10.4H12.7551V4.808H13.9791V6.632H19.1151V4.808H20.3391V10.4H17.1591V12.584ZM23.3021 5.228H28.4381C28.4381 8.456 27.1421 11.192 23.4221 12.992L22.7621 12.008C25.6061 10.64 26.9501 8.732 27.1661 6.236H23.3021V5.228ZM30.3941 4.088H31.6301V14.924H30.3941V4.088Z" fill="#636363"/>
<g clip-path="url(#clip1_430_901)">
<path d="M39 3L46 9.19355L39 15" stroke="#636363" stroke-linecap="round"/>
</g>
</g>
<defs>
<clipPath id="clip0_430_901">
<rect width="50" height="18" fill="white"/>
</clipPath>
<clipPath id="clip1_430_901">
<rect width="16" height="16" fill="white" transform="translate(34 1)"/>
</clipPath>
</defs>
</svg>
