<svg width="14" height="14" viewBox="0 0 14 14" fill="none" xmlns="http://www.w3.org/2000/svg">
<path d="M13.8286 13.0676C13.8815 13.1169 13.924 13.1763 13.9534 13.2424C13.9828 13.3084 13.9986 13.3797 13.9999 13.452C14.0012 13.5243 13.9879 13.5962 13.9608 13.6632C13.9337 13.7303 13.8934 13.7912 13.8423 13.8423C13.7912 13.8934 13.7303 13.9337 13.6632 13.9608C13.5962 13.9879 13.5243 14.0012 13.452 13.9999C13.3797 13.9986 13.3084 13.9828 13.2424 13.9534C13.1763 13.924 13.1169 13.8815 13.0676 13.8286L6.98657 7.74849L0.905543 13.8286C0.803469 13.9237 0.668461 13.9755 0.528962 13.9731C0.389464 13.9706 0.256367 13.9141 0.157712 13.8154C0.0590562 13.7168 0.00254517 13.5837 8.38904e-05 13.4442C-0.00237739 13.3047 0.0494032 13.1697 0.144517 13.0676L6.22465 6.98657L0.144517 0.905543C0.0494032 0.803469 -0.00237739 0.668461 8.38904e-05 0.528962C0.00254517 0.389464 0.0590562 0.256367 0.157712 0.157712C0.256367 0.0590562 0.389464 0.00254517 0.528962 8.38904e-05C0.668461 -0.00237739 0.803469 0.0494032 0.905543 0.144517L6.98657 6.22465L13.0676 0.144517C13.1697 0.0494032 13.3047 -0.00237739 13.4442 8.38904e-05C13.5837 0.00254517 13.7168 0.0590562 13.8154 0.157712C13.9141 0.256367 13.9706 0.389464 13.9731 0.528962C13.9755 0.668461 13.9237 0.803469 13.8286 0.905543L7.74849 6.98657L13.8286 13.0676Z" fill="#636363"/>
</svg>
