<svg width="48" height="48" viewBox="0 0 48 48" fill="none" xmlns="http://www.w3.org/2000/svg">
<g filter="url(#filter0_d_379_326)">
<g filter="url(#filter1_d_379_326)">
<mask id="path-1-inside-1_379_326" fill="white">
<path fill-rule="evenodd" clip-rule="evenodd" d="M10.2824 10.2829C10.9444 6.70766 14.0789 4 17.8459 4C20.3621 4 22.5962 5.20818 23.9996 7.07607C25.4031 5.20818 27.6371 4 30.1534 4C33.9203 4 37.0548 6.70758 37.7169 10.2827C41.2923 10.9446 44.0001 14.0792 44.0001 17.8463C44.0001 20.3624 42.792 22.5964 40.9243 23.9998C42.792 25.4033 44.0001 27.6373 44.0001 30.1534C44.0001 33.9202 41.2927 37.0546 37.7177 37.7168C37.0558 41.2922 33.9212 44 30.1541 44C27.6378 44 25.4037 42.7918 24.0003 40.9239C22.5969 42.7918 20.3628 44 17.8465 44C14.0795 44 10.9449 41.2922 10.283 37.7169C6.70771 37.0549 4 33.9204 4 30.1534C4 27.6373 5.20806 25.4033 7.0758 23.9998C5.20806 22.5964 4 20.3624 4 17.8463C4 14.0795 6.70741 10.9451 10.2824 10.2829Z"/>
</mask>
<path fill-rule="evenodd" clip-rule="evenodd" d="M10.2824 10.2829C10.9444 6.70766 14.0789 4 17.8459 4C20.3621 4 22.5962 5.20818 23.9996 7.07607C25.4031 5.20818 27.6371 4 30.1534 4C33.9203 4 37.0548 6.70758 37.7169 10.2827C41.2923 10.9446 44.0001 14.0792 44.0001 17.8463C44.0001 20.3624 42.792 22.5964 40.9243 23.9998C42.792 25.4033 44.0001 27.6373 44.0001 30.1534C44.0001 33.9202 41.2927 37.0546 37.7177 37.7168C37.0558 41.2922 33.9212 44 30.1541 44C27.6378 44 25.4037 42.7918 24.0003 40.9239C22.5969 42.7918 20.3628 44 17.8465 44C14.0795 44 10.9449 41.2922 10.283 37.7169C6.70771 37.0549 4 33.9204 4 30.1534C4 27.6373 5.20806 25.4033 7.0758 23.9998C5.20806 22.5964 4 20.3624 4 17.8463C4 14.0795 6.70741 10.9451 10.2824 10.2829Z" fill="#FFE070"/>
<path d="M10.2824 10.2829L10.3735 10.7745L10.7115 10.7119L10.774 10.3739L10.2824 10.2829ZM23.9996 7.07607L23.5999 7.37642L23.9996 7.90845L24.3994 7.37642L23.9996 7.07607ZM37.7169 10.2827L37.2252 10.3738L37.2878 10.7118L37.6258 10.7744L37.7169 10.2827ZM40.9243 23.9998L40.6239 23.6001L40.092 23.9998L40.6239 24.3996L40.9243 23.9998ZM37.7177 37.7168L37.6266 37.2252L37.2886 37.2878L37.226 37.6258L37.7177 37.7168ZM24.0003 40.9239L24.4001 40.6235L24.0003 40.0915L23.6006 40.6235L24.0003 40.9239ZM10.283 37.7169L10.7746 37.6259L10.7121 37.2878L10.374 37.2253L10.283 37.7169ZM7.0758 23.9998L7.37616 24.3996L7.90813 23.9998L7.37616 23.6001L7.0758 23.9998ZM17.8459 3.5C13.8336 3.5 10.4959 6.38393 9.79075 10.1919L10.774 10.3739C11.393 7.03139 14.3243 4.5 17.8459 4.5V3.5ZM24.3994 6.77573C22.9056 4.78755 20.526 3.5 17.8459 3.5V4.5C20.1983 4.5 22.2868 5.62881 23.5999 7.37642L24.3994 6.77573ZM30.1534 3.5C27.4733 3.5 25.0937 4.78755 23.5999 6.77573L24.3994 7.37642C25.7124 5.62881 27.801 4.5 30.1534 4.5V3.5ZM38.2085 10.1917C37.5033 6.38385 34.1657 3.5 30.1534 3.5V4.5C33.6749 4.5 36.6062 7.03132 37.2252 10.3738L38.2085 10.1917ZM44.5001 17.8463C44.5001 13.8338 41.616 10.4961 37.8079 9.79109L37.6258 10.7744C40.9685 11.3932 43.5001 14.3246 43.5001 17.8463H44.5001ZM41.2247 24.3996C43.2127 22.9058 44.5001 20.5263 44.5001 17.8463H43.5001C43.5001 20.1985 42.3714 22.287 40.6239 23.6001L41.2247 24.3996ZM44.5001 30.1534C44.5001 27.4734 43.2127 25.0939 41.2247 23.6001L40.6239 24.3996C42.3714 25.7126 43.5001 27.8011 43.5001 30.1534H44.5001ZM37.8087 38.2084C41.6164 37.5031 44.5001 34.1656 44.5001 30.1534H43.5001C43.5001 33.6748 40.9689 36.6061 37.6266 37.2252L37.8087 38.2084ZM30.1541 44.5C34.1666 44.5 37.5043 41.6159 38.2093 37.8078L37.226 37.6258C36.6072 40.9685 33.6758 43.5 30.1541 43.5V44.5ZM23.6006 41.2242C25.0944 43.2124 27.474 44.5 30.1541 44.5V43.5C27.8017 43.5 25.7131 42.3712 24.4001 40.6235L23.6006 41.2242ZM17.8465 44.5C20.5267 44.5 22.9063 43.2124 24.4001 41.2242L23.6006 40.6235C22.2875 42.3712 20.1989 43.5 17.8465 43.5V44.5ZM9.79135 37.8079C10.4964 41.616 13.8341 44.5 17.8465 44.5V43.5C14.3249 43.5 11.3935 40.9685 10.7746 37.6259L9.79135 37.8079ZM10.374 37.2253C7.03144 36.6064 4.5 33.675 4.5 30.1534H3.5C3.5 34.1658 6.38399 37.5035 10.192 38.2085L10.374 37.2253ZM4.5 30.1534C4.5 27.8011 5.6287 25.7126 7.37616 24.3996L6.77544 23.6001C4.78742 25.0939 3.5 27.4734 3.5 30.1534H4.5ZM3.5 17.8463C3.5 20.5263 4.78742 22.9057 6.77544 24.3996L7.37616 23.6001C5.6287 22.287 4.5 20.1985 4.5 17.8463H3.5ZM10.1913 9.79126C6.38366 10.4966 3.5 13.8341 3.5 17.8463H4.5C4.5 14.3249 7.03115 11.3937 10.3735 10.7745L10.1913 9.79126Z" fill="black" mask="url(#path-1-inside-1_379_326)"/>
</g>
<path fill-rule="evenodd" clip-rule="evenodd" d="M26.4987 24C27.3278 24 28 22.6569 28 21C28 19.3431 27.3278 18 26.4987 18C25.8309 18 25.2649 18.8714 25.0699 20.0762L26.5139 20.6255L25 21.1776C25.046 22.7518 25.6994 24 26.4987 24Z" fill="black"/>
<path fill-rule="evenodd" clip-rule="evenodd" d="M20.4987 24C21.3278 24 22 22.6569 22 21C22 19.3431 21.3278 18 20.4987 18C19.8309 18 19.2649 18.8714 19.0699 20.0762L20.5139 20.6255L19 21.1776C19.046 22.7518 19.6994 24 20.4987 24Z" fill="black"/>
<path fill-rule="evenodd" clip-rule="evenodd" d="M20 26C20 26.0001 20 26.0001 20 26.0002C20 28.2093 21.567 30.0002 23.5 30.0002C25.433 30.0002 27 28.2093 27 26.0002C27 26.0001 27 26.0001 27 26H20Z" fill="#E75A5A"/>
<ellipse cx="14.5" cy="25.5" rx="3.5" ry="1.5" fill="#FF6A6A"/>
<ellipse cx="32.5" cy="25.5" rx="3.5" ry="1.5" fill="#FF6A6A"/>
<path fill-rule="evenodd" clip-rule="evenodd" d="M22 26C22 27.1046 22.3358 28 22.75 28C23.1642 28 23.5 27.1046 23.5 26C23.5 27.1046 23.8358 28 24.25 28C24.6642 28 25 27.1046 25 26H23.5H22Z" fill="white"/>
</g>
<defs>
<filter id="filter0_d_379_326" x="-2" y="-1" width="52" height="52" filterUnits="userSpaceOnUse" color-interpolation-filters="sRGB">
<feFlood flood-opacity="0" result="BackgroundImageFix"/>
<feColorMatrix in="SourceAlpha" type="matrix" values="0 0 0 0 0 0 0 0 0 0 0 0 0 0 0 0 0 0 127 0" result="hardAlpha"/>
<feOffset dy="1"/>
<feGaussianBlur stdDeviation="1"/>
<feComposite in2="hardAlpha" operator="out"/>
<feColorMatrix type="matrix" values="0 0 0 0 0 0 0 0 0 0 0 0 0 0 0 0 0 0 0.25 0"/>
<feBlend mode="normal" in2="BackgroundImageFix" result="effect1_dropShadow_379_326"/>
<feBlend mode="normal" in="SourceGraphic" in2="effect1_dropShadow_379_326" result="shape"/>
</filter>
<filter id="filter1_d_379_326" x="2" y="3" width="44" height="44" filterUnits="userSpaceOnUse" color-interpolation-filters="sRGB">
<feFlood flood-opacity="0" result="BackgroundImageFix"/>
<feColorMatrix in="SourceAlpha" type="matrix" values="0 0 0 0 0 0 0 0 0 0 0 0 0 0 0 0 0 0 127 0" result="hardAlpha"/>
<feOffset dy="1"/>
<feGaussianBlur stdDeviation="1"/>
<feComposite in2="hardAlpha" operator="out"/>
<feColorMatrix type="matrix" values="0 0 0 0 0 0 0 0 0 0 0 0 0 0 0 0 0 0 0.25 0"/>
<feBlend mode="normal" in2="BackgroundImageFix" result="effect1_dropShadow_379_326"/>
<feBlend mode="normal" in="SourceGraphic" in2="effect1_dropShadow_379_326" result="shape"/>
</filter>
</defs>
</svg>
