<svg xmlns="http://www.w3.org/2000/svg" width="24" height="24" viewBox="0 0 24 24" fill="none">
<g clip-path="url(#clip0_444_1914)">
<path fill-rule="evenodd" clip-rule="evenodd" d="M8.30763 0C6.04753 0 4.16685 1.62451 3.76957 3.76957C1.62451 4.16685 0 6.04753 0 8.30763C0 9.81737 0.724896 11.1578 1.84562 11.9999C0.724898 12.8419 0 14.1824 0 15.6921C0 17.9523 1.62466 19.8331 3.76986 20.2302C4.16706 22.3754 6.04778 24 8.30795 24C9.81771 24 11.1582 23.2751 12.0002 22.1544C12.8423 23.2751 14.1827 24 15.6925 24C17.9527 24 19.8334 22.3753 20.2306 20.2302C22.3756 19.8328 24.0001 17.9522 24.0001 15.6921C24.0001 14.1824 23.2752 12.8419 22.1544 11.9999C23.2752 11.1578 24.0001 9.81738 24.0001 8.30763C24.0001 6.04741 22.3754 4.16666 20.2302 3.76951C19.8329 1.62448 17.9522 0 15.6921 0C14.1824 0 12.8419 0.724898 11.9999 1.84562C11.1578 0.724896 9.81737 0 8.30763 0ZM17.9543 17.17C17.9241 17.0971 17.8799 17.031 17.8242 16.9752L12.8482 12L17.8242 7.02478C17.9368 6.9122 18 6.75951 18 6.6003C18 6.44109 17.9368 6.2884 17.8242 6.17582C17.7116 6.06325 17.5589 6 17.3997 6C17.2405 6 17.0878 6.06325 16.9752 6.17582L12 11.1518L7.02478 6.17582C6.9122 6.06325 6.75951 6 6.6003 6C6.44109 6 6.2884 6.06325 6.17582 6.17582C6.06325 6.2884 6 6.44109 6 6.6003C6 6.75951 6.06325 6.9122 6.17582 7.02478L11.1518 12L6.17582 16.9752C6.06325 17.0878 6 17.2405 6 17.3997C6 17.5589 6.06325 17.7116 6.17582 17.8242C6.2884 17.9368 6.44109 18 6.6003 18C6.75951 18 6.9122 17.9368 7.02478 17.8242L12 12.8482L16.9752 17.8242C17.031 17.8799 17.0971 17.9241 17.17 17.9543C17.2428 17.9845 17.3209 18 17.3997 18C17.4785 18 17.5566 17.9845 17.6294 17.9543C17.7023 17.9241 17.7684 17.8799 17.8242 17.8242C17.8799 17.7684 17.9241 17.7023 17.9543 17.6294C17.9845 17.5566 18 17.4785 18 17.3997C18 17.3209 17.9845 17.2428 17.9543 17.17Z" fill="#D0D0D0"/>
</g>
<defs>
<clipPath id="clip0_444_1914">
<rect width="24" height="24" fill="white"/>
</clipPath>
</defs>
</svg>