<svg xmlns="http://www.w3.org/2000/svg" width="24" height="24" viewBox="0 0 24 24" fill="none">
  <path d="M20 8.47059C20 13.1488 16 19.7647 12 24C8 19.7647 4 13.1488 4 8.47059C4 3.79241 7.58172 0 12 0C16.4183 0 20 3.79241 20 8.47059Z" fill="#33DBBD"/>
  <circle cx="12" cy="8" r="6" fill="white"/>
  <path d="M8.8 10V6.22222H8.4V5.77778H8.8V5.33333H8.4V4.88889H8.8V4.44444H8.4V4H10.8C11 4.01333 11.18 4.10667 11.336 4.28C11.492 4.45333 11.58 4.66667 11.6 4.88889H15.6V5.33333H11.6C11.58 5.56889 11.492 5.77778 11.336 5.96889C11.18 6.16 11 6.24444 10.8 6.22222H10V9.35556C10.02 9.35556 10.052 9.35111 10.096 9.33333C10.14 9.31556 10.176 9.33333 10.2 9.33333C10.424 9.33333 10.68 9.39556 10.968 9.52C11.132 9.11111 11.412 8.74667 11.812 8.44444C12.212 8.14222 12.612 8 13.012 8C13.624 8 14.144 8.23556 14.568 8.70667C14.992 9.17778 15.2 9.75556 15.2 10.4444V10.5644C15.2 10.6222 15.188 10.6533 15.188 10.6667H8.456C8.508 10.4444 8.62 10.2222 8.8 10ZM9.6 9.43556V6.22222H9.2V9.64444C9.4 9.53333 9.524 9.46667 9.6 9.43556ZM10.8 5.77778V5.33333H10V5.77778H10.8ZM10.8 4.44444H10V4.88889H10.8V4.44444ZM9.2 4.44444V4.88889H9.6V4.44444H9.2ZM9.2 5.33333V5.77778H9.6V5.33333H9.2ZM8 11.1111H16L15.2 12H8.8L8 11.1111Z" fill="#33DBBD"/>
</svg>