<svg width="24" height="24" viewBox="0 0 24 24" fill="none" xmlns="http://www.w3.org/2000/svg">
<path d="M18 9C18 12.3137 15 17 12 20C9 17 6 12.3137 6 9C6 5.68629 8.68629 3 12 3C15.3137 3 18 5.68629 18 9Z" fill="#33DBBD"/>
<circle cx="12" cy="9" r="5" fill="white"/>
<path d="M9.6 10.5V7.66667H9.3V7.33333H9.6V7H9.3V6.66667H9.6V6.33333H9.3V6H11.1C11.25 6.01 11.385 6.08 11.502 6.21C11.619 6.34 11.685 6.5 11.7 6.66667H14.7V7H11.7C11.685 7.17667 11.619 7.33333 11.502 7.47667C11.385 7.62 11.25 7.68333 11.1 7.66667H10.5V10.0167C10.515 10.0167 10.539 10.0133 10.572 10C10.605 9.98667 10.632 10 10.65 10C10.818 10 11.01 10.0467 11.226 10.14C11.349 9.83333 11.559 9.56 11.859 9.33333C12.159 9.10667 12.459 9 12.759 9C13.218 9 13.608 9.17667 13.926 9.53C14.244 9.88333 14.4 10.3167 14.4 10.8333V10.9233C14.4 10.9667 14.391 10.99 14.391 11H9.342C9.381 10.8333 9.465 10.6667 9.6 10.5ZM10.2 10.0767V7.66667H9.9V10.2333C10.05 10.15 10.143 10.1 10.2 10.0767ZM11.1 7.33333V7H10.5V7.33333H11.1ZM11.1 6.33333H10.5V6.66667H11.1V6.33333ZM9.9 6.33333V6.66667H10.2V6.33333H9.9ZM9.9 7V7.33333H10.2V7H9.9ZM9 11.3333H15L14.4 12H9.6L9 11.3333Z" fill="#33DBBD"/>
</svg>
