<svg width="20" height="20" viewBox="0 0 20 20" fill="none" xmlns="http://www.w3.org/2000/svg">
<circle cx="10" cy="10" r="10" fill="white"/>
<path d="M5.2 13V7.33333H4.6V6.66667H5.2V6H4.6V5.33333H5.2V4.66667H4.6V4H8.2C8.5 4.02 8.77 4.16 9.004 4.42C9.238 4.68 9.37 5 9.4 5.33333H15.4V6H9.4C9.37 6.35333 9.238 6.66667 9.004 6.95333C8.77 7.24 8.5 7.36667 8.2 7.33333H7V12.0333C7.03 12.0333 7.078 12.0267 7.144 12C7.21 11.9733 7.264 12 7.3 12C7.636 12 8.02 12.0933 8.452 12.28C8.698 11.6667 9.118 11.12 9.718 10.6667C10.318 10.2133 10.918 10 11.518 10C12.436 10 13.216 10.3533 13.852 11.06C14.488 11.7667 14.8 12.6333 14.8 13.6667V13.8467C14.8 13.9333 14.782 13.98 14.782 14H4.684C4.762 13.6667 4.93 13.3333 5.2 13ZM6.4 12.1533V7.33333H5.8V12.4667C6.1 12.3 6.286 12.2 6.4 12.1533ZM8.2 6.66667V6H7V6.66667H8.2ZM8.2 4.66667H7V5.33333H8.2V4.66667ZM5.8 4.66667V5.33333H6.4V4.66667H5.8ZM5.8 6V6.66667H6.4V6H5.8ZM4 14.6667H16L14.8 16H5.2L4 14.6667Z" fill="#33DBBD"/>
</svg>
